<svg version="1.1" viewBox="0.0 0.0 480.0 297.0" fill="none" stroke="none" stroke-linecap="square" stroke-miterlimit="10" width="480" height="297" xmlns:xlink="http://www.w3.org/1999/xlink" xmlns="http://www.w3.org/2000/svg"><path fill="#ffffff" d="M0 0L480.0 0L480.0 297.0L0 297.0L0 0Z" fill-rule="nonzero"/><path stroke="#333333" stroke-width="1.0" stroke-linecap="butt" d="M73.5 230.5L465.5 230.5" fill-rule="nonzero"/><path stroke="#cccccc" stroke-width="1.0" stroke-linecap="butt" d="M73.5 186.5L465.5 186.5" fill-rule="nonzero"/><path stroke="#cccccc" stroke-width="1.0" stroke-linecap="butt" d="M73.5 142.5L465.5 142.5" fill-rule="nonzero"/><path stroke="#cccccc" stroke-width="1.0" stroke-linecap="butt" d="M73.5 99.5L465.5 99.5" fill-rule="nonzero"/><path stroke="#cccccc" stroke-width="1.0" stroke-linecap="butt" d="M73.5 55.5L465.5 55.5" fill-rule="nonzero"/><clipPath id="id_0"><path d="M73.85 55.75L465.15 55.75L465.15 230.15L73.85 230.15L73.85 55.75Z" clip-rule="nonzero"/></clipPath><path stroke="#000000" stroke-width="2.0" stroke-linecap="butt" stroke-opacity="0.0" clip-path="url(#id_0)" d="M120.0 230.0L90.0 230.0L90.0 58.0C90.0 56.89543 90.89543 56.0 92.0 56.0L118.0 56.0C119.10457 56.0 120.0 56.89543 120.0 58.0Z" fill-rule="nonzero"/><path fill="#4285f4" clip-path="url(#id_0)" d="M120.0 230.0L90.0 230.0L90.0 58.0C90.0 56.89543 90.89543 56.0 92.0 56.0L118.0 56.0C119.10457 56.0 120.0 56.89543 120.0 58.0Z" fill-rule="nonzero"/><path stroke="#000000" stroke-width="2.0" stroke-linecap="butt" stroke-opacity="0.0" clip-path="url(#id_0)" d="M167.0 230.0L137.0 230.0L137.0 215.0C137.0 213.89543 137.89543 213.0 139.0 213.0L165.0 213.0C166.10457 213.0 167.0 213.89543 167.0 215.0Z" fill-rule="nonzero"/><path fill="#4285f4" clip-path="url(#id_0)" d="M167.0 230.0L137.0 230.0L137.0 215.0C137.0 213.89543 137.89543 213.0 139.0 213.0L165.0 213.0C166.10457 213.0 167.0 213.89543 167.0 215.0Z" fill-rule="nonzero"/><path stroke="#000000" stroke-width="2.0" stroke-linecap="butt" stroke-opacity="0.0" clip-path="url(#id_0)" d="M214.0 230.0L184.0 230.0L184.0 197.0C184.0 195.89543 184.89543 195.0 186.0 195.0L212.0 195.0C213.10457 195.0 214.0 195.89543 214.0 197.0Z" fill-rule="nonzero"/><path fill="#4285f4" clip-path="url(#id_0)" d="M214.0 230.0L184.0 230.0L184.0 197.0C184.0 195.89543 184.89543 195.0 186.0 195.0L212.0 195.0C213.10457 195.0 214.0 195.89543 214.0 197.0Z" fill-rule="nonzero"/><path stroke="#000000" stroke-width="2.0" stroke-linecap="butt" stroke-opacity="0.0" clip-path="url(#id_0)" d="M261.0 230.0L231.0 230.0L231.0 206.0C231.0 204.89543 231.89543 204.0 233.0 204.0L259.0 204.0C260.10458 204.0 261.0 204.89543 261.0 206.0Z" fill-rule="nonzero"/><path fill="#4285f4" clip-path="url(#id_0)" d="M261.0 230.0L231.0 230.0L231.0 206.0C231.0 204.89543 231.89543 204.0 233.0 204.0L259.0 204.0C260.10458 204.0 261.0 204.89543 261.0 206.0Z" fill-rule="nonzero"/><path stroke="#000000" stroke-width="2.0" stroke-linecap="butt" stroke-opacity="0.0" clip-path="url(#id_0)" d="M308.0 230.0L278.0 230.0L278.0 215.0C278.0 213.89543 278.89542 213.0 280.0 213.0L306.0 213.0C307.10458 213.0 308.0 213.89543 308.0 215.0Z" fill-rule="nonzero"/><path fill="#4285f4" clip-path="url(#id_0)" d="M308.0 230.0L278.0 230.0L278.0 215.0C278.0 213.89543 278.89542 213.0 280.0 213.0L306.0 213.0C307.10458 213.0 308.0 213.89543 308.0 215.0Z" fill-rule="nonzero"/><path stroke="#000000" stroke-width="2.0" stroke-linecap="butt" stroke-opacity="0.0" clip-path="url(#id_0)" d="M355.0 230.0L325.0 230.0L325.0 223.0C325.0 221.89543 325.89542 221.0 327.0 221.0L353.0 221.0C354.10458 221.0 355.0 221.89543 355.0 223.0Z" fill-rule="nonzero"/><path fill="#4285f4" clip-path="url(#id_0)" d="M355.0 230.0L325.0 230.0L325.0 223.0C325.0 221.89543 325.89542 221.0 327.0 221.0L353.0 221.0C354.10458 221.0 355.0 221.89543 355.0 223.0Z" fill-rule="nonzero"/><path stroke="#000000" stroke-width="2.0" stroke-linecap="butt" stroke-opacity="0.0" clip-path="url(#id_0)" d="M402.0 230.0L372.0 230.0L372.0 223.0C372.0 221.89543 372.89542 221.0 374.0 221.0L400.0 221.0C401.10458 221.0 402.0 221.89543 402.0 223.0Z" fill-rule="nonzero"/><path fill="#4285f4" clip-path="url(#id_0)" d="M402.0 230.0L372.0 230.0L372.0 223.0C372.0 221.89543 372.89542 221.0 374.0 221.0L400.0 221.0C401.10458 221.0 402.0 221.89543 402.0 223.0Z" fill-rule="nonzero"/><path stroke="#000000" stroke-width="2.0" stroke-linecap="butt" stroke-opacity="0.0" clip-path="url(#id_0)" d="M449.0 230.0L419.0 230.0L419.0 223.0C419.0 221.89543 419.89542 221.0 421.0 221.0L447.0 221.0C448.10458 221.0 449.0 221.89543 449.0 223.0Z" fill-rule="nonzero"/><path fill="#4285f4" clip-path="url(#id_0)" d="M449.0 230.0L419.0 230.0L419.0 223.0C419.0 221.89543 419.89542 221.0 421.0 221.0L447.0 221.0C448.10458 221.0 449.0 221.89543 449.0 223.0Z" fill-rule="nonzero"/><path fill="#000000" d="M224.34375 279.15L224.34375 275.50937L221.03125 270.55624L222.42188 270.55624L224.10938 273.15Q224.57812 273.86874 224.98438 274.60312Q225.375 273.93124 225.92188 273.0875L227.59375 270.55624L228.90625 270.55624L225.48438 275.50937L225.48438 279.15L224.34375 279.15ZM234.04688 277.15L235.14062 277.275Q234.89062 278.22812 234.1875 278.75937Q233.48438 279.29062 232.40625 279.29062Q231.04688 279.29062 230.23438 278.44687Q229.4375 277.60312 229.4375 276.0875Q229.4375 274.525 230.25 273.66562Q231.0625 272.79062 232.34375 272.79062Q233.59375 272.79062 234.375 273.63437Q235.17188 274.47812 235.17188 276.025Q235.17188 276.11874 235.17188 276.30624L230.53125 276.30624Q230.59375 277.3375 231.10938 277.88437Q231.625 278.41562 232.40625 278.41562Q232.98438 278.41562 233.39062 278.11874Q233.8125 277.80624 234.04688 277.15ZM230.59375 275.44687L234.0625 275.44687Q234.0 274.65 233.67188 274.25937Q233.15625 273.65 232.35938 273.65Q231.625 273.65 231.125 274.13437Q230.64062 274.61874 230.59375 275.44687ZM240.85938 278.38437Q240.26562 278.88437 239.71875 279.0875Q239.1875 279.29062 238.5625 279.29062Q237.53125 279.29062 236.98438 278.79062Q236.4375 278.29062 236.4375 277.50937Q236.4375 277.05624 236.64062 276.68124Q236.84375 276.29062 237.1875 276.07187Q237.53125 275.8375 237.95312 275.72812Q238.25 275.63437 238.89062 275.55624Q240.15625 275.41562 240.76562 275.19687Q240.76562 274.97812 240.76562 274.93124Q240.76562 274.275 240.46875 274.00937Q240.0625 273.66562 239.26562 273.66562Q238.53125 273.66562 238.17188 273.93124Q237.8125 274.18124 237.64062 274.8375L236.60938 274.69687Q236.75 274.04062 237.07812 273.63437Q237.40625 273.22812 238.01562 273.00937Q238.625 272.79062 239.42188 272.79062Q240.21875 272.79062 240.71875 272.97812Q241.21875 273.16562 241.45312 273.44687Q241.6875 273.72812 241.78125 274.16562Q241.82812 274.43124 241.82812 275.13437L241.82812 276.54062Q241.82812 278.00937 241.89062 278.4Q241.96875 278.79062 242.17188 279.15L241.0625 279.15Q240.90625 278.82187 240.85938 278.38437ZM240.76562 276.025Q240.1875 276.25937 239.04688 276.43124Q238.39062 276.525 238.125 276.65Q237.85938 276.75937 237.70312 276.97812Q237.5625 277.19687 237.5625 277.47812Q237.5625 277.9 237.875 278.18124Q238.20312 278.4625 238.8125 278.4625Q239.42188 278.4625 239.89062 278.19687Q240.375 277.93124 240.59375 277.4625Q240.76562 277.10312 240.76562 276.41562L240.76562 276.025ZM243.78125 279.15L243.78125 272.93124L244.73438 272.93124L244.73438 273.86874Q245.09375 273.2125 245.39062 273.00937Q245.70312 272.79062 246.07812 272.79062Q246.60938 272.79062 247.15625 273.11874L246.79688 274.10312Q246.40625 273.86874 246.03125 273.86874Q245.67188 273.86874 245.39062 274.0875Q245.125 274.29062 245.01562 274.66562Q244.82812 275.22812 244.82812 275.88437L244.82812 279.15L243.78125 279.15ZM247.375 277.29062L248.40625 277.13437Q248.5 277.75937 248.89062 278.0875Q249.29688 278.41562 250.03125 278.41562Q250.75 278.41562 251.09375 278.13437Q251.45312 277.8375 251.45312 277.43124Q251.45312 277.07187 251.14062 276.86874Q250.92188 276.72812 250.0625 276.50937Q248.90625 276.2125 248.45312 276.00937Q248.01562 275.79062 247.78125 275.41562Q247.54688 275.04062 247.54688 274.57187Q247.54688 274.16562 247.73438 273.80624Q247.92188 273.44687 248.25 273.2125Q248.5 273.04062 248.92188 272.91562Q249.34375 272.79062 249.84375 272.79062Q250.5625 272.79062 251.10938 273.00937Q251.67188 273.2125 251.9375 273.57187Q252.20312 273.93124 252.29688 274.525L251.26562 274.66562Q251.20312 274.19687 250.85938 273.93124Q250.53125 273.65 249.90625 273.65Q249.1875 273.65 248.875 273.9Q248.5625 274.13437 248.5625 274.4625Q248.5625 274.66562 248.6875 274.82187Q248.82812 274.99374 249.09375 275.10312Q249.25 275.16562 250.03125 275.36874Q251.15625 275.68124 251.59375 275.86874Q252.03125 276.05624 252.28125 276.41562Q252.53125 276.775 252.53125 277.32187Q252.53125 277.85312 252.21875 278.32187Q251.92188 278.775 251.34375 279.04062Q250.76562 279.29062 250.03125 279.29062Q248.8125 279.29062 248.17188 278.79062Q247.54688 278.275 247.375 277.29062ZM256.95312 279.15L256.95312 270.55624L263.15625 270.55624L263.15625 271.57187L258.09375 271.57187L258.09375 274.19687L262.84375 274.19687L262.84375 275.2125L258.09375 275.2125L258.09375 278.13437L263.35938 278.13437L263.35938 279.15L256.95312 279.15ZM264.09375 279.15L266.35938 275.91562L264.26562 272.93124L265.57812 272.93124L266.53125 274.38437Q266.79688 274.80624 266.96875 275.0875Q267.21875 274.69687 267.4375 274.4L268.48438 272.93124L269.75 272.93124L267.59375 275.85312L269.90625 279.15L268.625 279.15L267.34375 277.2125L267.0 276.69687L265.35938 279.15L264.09375 279.15ZM270.79688 281.54062L270.79688 272.93124L271.75 272.93124L271.75 273.72812Q272.09375 273.25937 272.51562 273.025Q272.95312 272.79062 273.5625 272.79062Q274.35938 272.79062 274.96875 273.19687Q275.57812 273.60312 275.875 274.35312Q276.1875 275.10312 276.1875 275.99374Q276.1875 276.94687 275.84375 277.7125Q275.51562 278.47812 274.85938 278.88437Q274.20312 279.29062 273.48438 279.29062Q272.95312 279.29062 272.53125 279.07187Q272.10938 278.8375 271.84375 278.50937L271.84375 281.54062L270.79688 281.54062ZM271.75 276.07187Q271.75 277.275 272.23438 277.85312Q272.71875 278.41562 273.40625 278.41562Q274.10938 278.41562 274.60938 277.82187Q275.10938 277.22812 275.10938 275.97812Q275.10938 274.79062 274.625 274.2125Q274.14062 273.61874 273.45312 273.61874Q272.78125 273.61874 272.26562 274.24374Q271.75 274.86874 271.75 276.07187ZM282.04688 277.15L283.14062 277.275Q282.89062 278.22812 282.1875 278.75937Q281.48438 279.29062 280.40625 279.29062Q279.04688 279.29062 278.23438 278.44687Q277.4375 277.60312 277.4375 276.0875Q277.4375 274.525 278.25 273.66562Q279.0625 272.79062 280.34375 272.79062Q281.59375 272.79062 282.375 273.63437Q283.17188 274.47812 283.17188 276.025Q283.17188 276.11874 283.17188 276.30624L278.53125 276.30624Q278.59375 277.3375 279.10938 277.88437Q279.625 278.41562 280.40625 278.41562Q280.98438 278.41562 281.39062 278.11874Q281.8125 277.80624 282.04688 277.15ZM278.59375 275.44687L282.0625 275.44687Q282.0 274.65 281.67188 274.25937Q281.15625 273.65 280.35938 273.65Q279.625 273.65 279.125 274.13437Q278.64062 274.61874 278.59375 275.44687ZM284.78125 279.15L284.78125 272.93124L285.73438 272.93124L285.73438 273.86874Q286.09375 273.2125 286.39062 273.00937Q286.70312 272.79062 287.07812 272.79062Q287.60938 272.79062 288.15625 273.11874L287.79688 274.10312Q287.40625 273.86874 287.03125 273.86874Q286.67188 273.86874 286.39062 274.0875Q286.125 274.29062 286.01562 274.66562Q285.82812 275.22812 285.82812 275.88437L285.82812 279.15L284.78125 279.15ZM288.79688 271.775L288.79688 270.55624L289.85938 270.55624L289.85938 271.775L288.79688 271.775ZM288.79688 279.15L288.79688 272.93124L289.85938 272.93124L289.85938 279.15L288.79688 279.15ZM296.04688 277.15L297.14062 277.275Q296.89062 278.22812 296.1875 278.75937Q295.48438 279.29062 294.40625 279.29062Q293.04688 279.29062 292.23438 278.44687Q291.4375 277.60312 291.4375 276.0875Q291.4375 274.525 292.25 273.66562Q293.0625 272.79062 294.34375 272.79062Q295.59375 272.79062 296.375 273.63437Q297.17188 274.47812 297.17188 276.025Q297.17188 276.11874 297.17188 276.30624L292.53125 276.30624Q292.59375 277.3375 293.10938 277.88437Q293.625 278.41562 294.40625 278.41562Q294.98438 278.41562 295.39062 278.11874Q295.8125 277.80624 296.04688 277.15ZM292.59375 275.44687L296.0625 275.44687Q296.0 274.65 295.67188 274.25937Q295.15625 273.65 294.35938 273.65Q293.625 273.65 293.125 274.13437Q292.64062 274.61874 292.59375 275.44687ZM298.79688 279.15L298.79688 272.93124L299.73438 272.93124L299.73438 273.80624Q300.42188 272.79062 301.71875 272.79062Q302.28125 272.79062 302.75 272.99374Q303.23438 273.19687 303.46875 273.525Q303.70312 273.85312 303.79688 274.29062Q303.84375 274.5875 303.84375 275.32187L303.84375 279.15L302.79688 279.15L302.79688 275.36874Q302.79688 274.7125 302.67188 274.4Q302.54688 274.0875 302.23438 273.9Q301.92188 273.69687 301.5 273.69687Q300.82812 273.69687 300.32812 274.13437Q299.84375 274.55624 299.84375 275.74374L299.84375 279.15L298.79688 279.15ZM309.85938 276.86874L310.89062 277.00937Q310.71875 278.07187 310.01562 278.68124Q309.3125 279.29062 308.29688 279.29062Q307.01562 279.29062 306.23438 278.4625Q305.46875 277.61874 305.46875 276.05624Q305.46875 275.05624 305.79688 274.30624Q306.14062 273.54062 306.8125 273.16562Q307.5 272.79062 308.3125 272.79062Q309.3125 272.79062 309.95312 273.30624Q310.60938 273.80624 310.79688 274.75937L309.76562 274.91562Q309.625 274.29062 309.25 273.97812Q308.875 273.65 308.34375 273.65Q307.54688 273.65 307.04688 274.22812Q306.54688 274.79062 306.54688 276.025Q306.54688 277.29062 307.03125 277.85312Q307.51562 278.41562 308.28125 278.41562Q308.90625 278.41562 309.3125 278.04062Q309.73438 277.66562 309.85938 276.86874ZM316.04688 277.15L317.14062 277.275Q316.89062 278.22812 316.1875 278.75937Q315.48438 279.29062 314.40625 279.29062Q313.04688 279.29062 312.23438 278.44687Q311.4375 277.60312 311.4375 276.0875Q311.4375 274.525 312.25 273.66562Q313.0625 272.79062 314.34375 272.79062Q315.59375 272.79062 316.375 273.63437Q317.17188 274.47812 317.17188 276.025Q317.17188 276.11874 317.17188 276.30624L312.53125 276.30624Q312.59375 277.3375 313.10938 277.88437Q313.625 278.41562 314.40625 278.41562Q314.98438 278.41562 315.39062 278.11874Q315.8125 277.80624 316.04688 277.15ZM312.59375 275.44687L316.0625 275.44687Q316.0 274.65 315.67188 274.25937Q315.15625 273.65 314.35938 273.65Q313.625 273.65 313.125 274.13437Q312.64062 274.61874 312.59375 275.44687Z" fill-rule="nonzero"/><path fill="#000000" d="M25.849995 206.52812L17.256245 206.52812L17.256245 205.37187L24.006245 200.85625L17.256245 200.85625L17.256245 199.7625L25.849995 199.7625L25.849995 200.93437L19.099995 205.45L25.849995 205.45L25.849995 206.52812ZM25.849995 193.575L24.92812 193.575Q25.99062 194.30937 25.99062 195.55937Q25.99062 196.10625 25.787495 196.59062Q25.568745 197.05937 25.256245 197.29375Q24.92812 197.52812 24.45937 197.62187Q24.162495 197.68437 23.474995 197.68437L19.631245 197.68437L19.631245 196.62187L23.08437 196.62187Q23.89687 196.62187 24.193745 196.55937Q24.599995 196.46562 24.849995 196.15312Q25.08437 195.825 25.08437 195.34062Q25.08437 194.87187 24.849995 194.46562Q24.599995 194.04375 24.17812 193.87187Q23.756245 193.68437 22.95937 193.68437L19.631245 193.68437L19.631245 192.6375L25.849995 192.6375L25.849995 193.575ZM25.849995 190.65312L19.631245 190.65312L19.631245 189.71562L20.506245 189.71562Q20.037495 189.41875 19.77187 188.93437Q19.49062 188.45 19.49062 187.825Q19.49062 187.1375 19.77187 186.7Q20.05312 186.24687 20.568745 186.075Q19.49062 185.325 19.49062 184.15312Q19.49062 183.21562 20.006245 182.73125Q20.506245 182.23125 21.58437 182.23125L25.849995 182.23125L25.849995 183.27812L21.92812 183.27812Q21.30312 183.27812 21.02187 183.3875Q20.74062 183.48125 20.568745 183.74687Q20.39687 184.0125 20.39687 184.3875Q20.39687 185.04375 20.83437 185.48125Q21.27187 185.90312 22.24062 185.90312L25.849995 185.90312L25.849995 186.96562L21.80312 186.96562Q21.099995 186.96562 20.756245 187.23125Q20.39687 187.48125 20.39687 188.05937Q20.39687 188.5125 20.631245 188.8875Q20.86562 189.2625 21.318745 189.43437Q21.77187 189.60625 22.61562 189.60625L25.849995 189.60625L25.849995 190.65312ZM25.849995 179.68437L25.849995 180.66875L17.256245 180.66875L17.256245 179.60625L20.318745 179.60625Q19.49062 178.93437 19.49062 177.90312Q19.49062 177.325 19.724995 176.825Q19.943745 176.30937 20.36562 175.98125Q20.787495 175.6375 21.381245 175.45Q21.974995 175.2625 22.64687 175.2625Q24.24062 175.2625 25.11562 176.05937Q25.99062 176.85625 25.99062 177.95Q25.99062 179.05937 25.068745 179.68437L25.849995 179.68437ZM22.693745 179.7Q23.80312 179.7 24.30312 179.3875Q25.11562 178.8875 25.11562 178.04375Q25.11562 177.35625 24.52187 176.85625Q23.92812 176.34062 22.724995 176.34062Q21.506245 176.34062 20.92812 176.825Q20.349995 177.30937 20.349995 177.99687Q20.349995 178.68437 20.95937 179.2Q21.55312 179.7 22.693745 179.7ZM23.849995 169.40312L23.974995 168.30937Q24.92812 168.55937 25.45937 169.2625Q25.99062 169.96562 25.99062 171.04375Q25.99062 172.40312 25.14687 173.21562Q24.30312 174.0125 22.787495 174.0125Q21.224995 174.0125 20.36562 173.2Q19.49062 172.3875 19.49062 171.10625Q19.49062 169.85625 20.33437 169.075Q21.17812 168.27812 22.724995 168.27812Q22.818745 168.27812 23.006245 168.27812L23.006245 172.91875Q24.037495 172.85625 24.58437 172.34062Q25.11562 171.825 25.11562 171.04375Q25.11562 170.46562 24.818745 170.05937Q24.506245 169.6375 23.849995 169.40312ZM22.14687 172.85625L22.14687 169.3875Q21.349995 169.45 20.95937 169.77812Q20.349995 170.29375 20.349995 171.09062Q20.349995 171.825 20.83437 172.325Q21.318745 172.80937 22.14687 172.85625ZM25.849995 166.66875L19.631245 166.66875L19.631245 165.71562L20.568745 165.71562Q19.912495 165.35625 19.70937 165.05937Q19.49062 164.74687 19.49062 164.37187Q19.49062 163.84062 19.818745 163.29375L20.80312 163.65312Q20.568745 164.04375 20.568745 164.41875Q20.568745 164.77812 20.787495 165.05937Q20.99062 165.325 21.36562 165.43437Q21.92812 165.62187 22.58437 165.62187L25.849995 165.62187L25.849995 166.66875ZM22.74062 160.04375Q21.006245 160.04375 20.17812 159.09062Q19.49062 158.29375 19.49062 157.1375Q19.49062 155.85625 20.33437 155.04375Q21.162495 154.21562 22.64687 154.21562Q23.849995 154.21562 24.537495 154.575Q25.224995 154.93437 25.61562 155.6375Q25.99062 156.325 25.99062 157.1375Q25.99062 158.43437 25.162495 159.24687Q24.318745 160.04375 22.74062 160.04375ZM22.74062 158.96562Q23.92812 158.96562 24.52187 158.45Q25.11562 157.91875 25.11562 157.1375Q25.11562 156.34062 24.52187 155.825Q23.92812 155.30937 22.70937 155.30937Q21.55312 155.30937 20.95937 155.84062Q20.36562 156.35625 20.36562 157.1375Q20.36562 157.91875 20.95937 158.45Q21.537495 158.96562 22.74062 158.96562ZM25.849995 152.40312L20.443745 152.40312L20.443745 153.34062L19.631245 153.34062L19.631245 152.40312L18.95937 152.40312Q18.33437 152.40312 18.037495 152.29375Q17.61562 152.1375 17.36562 151.7625Q17.11562 151.37187 17.11562 150.68437Q17.11562 150.23125 17.224995 149.7L18.131245 149.85625Q18.08437 150.18437 18.08437 150.48125Q18.08437 150.96562 18.287495 151.16875Q18.49062 151.35625 19.05312 151.35625L19.631245 151.35625L19.631245 150.1375L20.443745 150.1375L20.443745 151.35625L25.849995 151.35625L25.849995 152.40312ZM25.08437 142.59062Q25.58437 143.18437 25.787495 143.73125Q25.99062 144.2625 25.99062 144.8875Q25.99062 145.91875 25.49062 146.46562Q24.99062 147.0125 24.20937 147.0125Q23.756245 147.0125 23.381245 146.80937Q22.99062 146.60625 22.77187 146.2625Q22.537495 145.91875 22.42812 145.49687Q22.33437 145.2 22.256245 144.55937Q22.11562 143.29375 21.89687 142.68437Q21.67812 142.68437 21.631245 142.68437Q20.974995 142.68437 20.70937 142.98125Q20.36562 143.3875 20.36562 144.18437Q20.36562 144.91875 20.631245 145.27812Q20.881245 145.6375 21.537495 145.80937L21.39687 146.84062Q20.74062 146.7 20.33437 146.37187Q19.92812 146.04375 19.70937 145.43437Q19.49062 144.825 19.49062 144.02812Q19.49062 143.23125 19.67812 142.73125Q19.86562 142.23125 20.14687 141.99687Q20.42812 141.7625 20.86562 141.66875Q21.131245 141.62187 21.83437 141.62187L23.24062 141.62187Q24.70937 141.62187 25.099995 141.55937Q25.49062 141.48125 25.849995 141.27812L25.849995 142.3875Q25.52187 142.54375 25.08437 142.59062ZM22.724995 142.68437Q22.95937 143.2625 23.131245 144.40312Q23.224995 145.05937 23.349995 145.325Q23.45937 145.59062 23.67812 145.74687Q23.89687 145.8875 24.17812 145.8875Q24.599995 145.8875 24.881245 145.575Q25.162495 145.24687 25.162495 144.6375Q25.162495 144.02812 24.89687 143.55937Q24.631245 143.075 24.162495 142.85625Q23.80312 142.68437 23.11562 142.68437L22.724995 142.68437ZM28.24062 139.65312L19.631245 139.65312L19.631245 138.7L20.42812 138.7Q19.95937 138.35625 19.724995 137.93437Q19.49062 137.49687 19.49062 136.8875Q19.49062 136.09062 19.89687 135.48125Q20.30312 134.87187 21.05312 134.575Q21.80312 134.2625 22.693745 134.2625Q23.64687 134.2625 24.412495 134.60625Q25.17812 134.93437 25.58437 135.59062Q25.99062 136.24687 25.99062 136.96562Q25.99062 137.49687 25.77187 137.91875Q25.537495 138.34062 25.20937 138.60625L28.24062 138.60625L28.24062 139.65312ZM22.77187 138.7Q23.974995 138.7 24.55312 138.21562Q25.11562 137.73125 25.11562 137.04375Q25.11562 136.34062 24.52187 135.84062Q23.92812 135.34062 22.67812 135.34062Q21.49062 135.34062 20.912495 135.825Q20.318745 136.30937 20.318745 136.99687Q20.318745 137.66875 20.943745 138.18437Q21.568745 138.7 22.77187 138.7ZM28.24062 132.65312L19.631245 132.65312L19.631245 131.7L20.42812 131.7Q19.95937 131.35625 19.724995 130.93437Q19.49062 130.49687 19.49062 129.8875Q19.49062 129.09062 19.89687 128.48125Q20.30312 127.87187 21.05312 127.575Q21.80312 127.2625 22.693745 127.2625Q23.64687 127.2625 24.412495 127.60625Q25.17812 127.93437 25.58437 128.59062Q25.99062 129.24687 25.99062 129.96562Q25.99062 130.49687 25.77187 130.91875Q25.537495 131.34062 25.20937 131.60625L28.24062 131.60625L28.24062 132.65312ZM22.77187 131.7Q23.974995 131.7 24.55312 131.21562Q25.11562 130.73125 25.11562 130.04375Q25.11562 129.34062 24.52187 128.84062Q23.92812 128.34062 22.67812 128.34062Q21.49062 128.34062 20.912495 128.825Q20.318745 129.30937 20.318745 129.99687Q20.318745 130.66875 20.943745 131.18437Q21.568745 131.7 22.77187 131.7ZM25.849995 125.68437L17.256245 125.68437L17.256245 124.62187L25.849995 124.62187L25.849995 125.68437ZM18.474995 122.65312L17.256245 122.65312L17.256245 121.59062L18.474995 121.59062L18.474995 122.65312ZM25.849995 122.65312L19.631245 122.65312L19.631245 121.59062L25.849995 121.59062L25.849995 122.65312ZM23.568745 115.59062L23.70937 114.55937Q24.77187 114.73125 25.381245 115.43437Q25.99062 116.1375 25.99062 117.15312Q25.99062 118.43437 25.162495 119.21562Q24.318745 119.98125 22.756245 119.98125Q21.756245 119.98125 21.006245 119.65312Q20.24062 119.30937 19.86562 118.6375Q19.49062 117.95 19.49062 117.1375Q19.49062 116.1375 20.006245 115.49687Q20.506245 114.84062 21.45937 114.65312L21.61562 115.68437Q20.99062 115.825 20.67812 116.2Q20.349995 116.575 20.349995 117.10625Q20.349995 117.90312 20.92812 118.40312Q21.49062 118.90312 22.724995 118.90312Q23.99062 118.90312 24.55312 118.41875Q25.11562 117.93437 25.11562 117.16875Q25.11562 116.54375 24.74062 116.1375Q24.36562 115.71562 23.568745 115.59062ZM25.08437 109.59062Q25.58437 110.18437 25.787495 110.73125Q25.99062 111.2625 25.99062 111.8875Q25.99062 112.91875 25.49062 113.46562Q24.99062 114.0125 24.20937 114.0125Q23.756245 114.0125 23.381245 113.80937Q22.99062 113.60625 22.77187 113.2625Q22.537495 112.91875 22.42812 112.49687Q22.33437 112.2 22.256245 111.55937Q22.11562 110.29375 21.89687 109.68437Q21.67812 109.68437 21.631245 109.68437Q20.974995 109.68437 20.70937 109.98125Q20.36562 110.3875 20.36562 111.18437Q20.36562 111.91875 20.631245 112.27812Q20.881245 112.6375 21.537495 112.80937L21.39687 113.84062Q20.74062 113.7 20.33437 113.37187Q19.92812 113.04375 19.70937 112.43437Q19.49062 111.825 19.49062 111.02812Q19.49062 110.23125 19.67812 109.73125Q19.86562 109.23125 20.14687 108.99687Q20.42812 108.7625 20.86562 108.66875Q21.131245 108.62187 21.83437 108.62187L23.24062 108.62187Q24.70937 108.62187 25.099995 108.55937Q25.49062 108.48125 25.849995 108.27812L25.849995 109.3875Q25.52187 109.54375 25.08437 109.59062ZM22.724995 109.68437Q22.95937 110.2625 23.131245 111.40312Q23.224995 112.05937 23.349995 112.325Q23.45937 112.59062 23.67812 112.74687Q23.89687 112.8875 24.17812 112.8875Q24.599995 112.8875 24.881245 112.575Q25.162495 112.24687 25.162495 111.6375Q25.162495 111.02812 24.89687 110.55937Q24.631245 110.075 24.162495 109.85625Q23.80312 109.68437 23.11562 109.68437L22.724995 109.68437ZM25.849995 106.65312L19.631245 106.65312L19.631245 105.71562L20.506245 105.71562Q19.49062 105.02812 19.49062 103.73125Q19.49062 103.16875 19.693745 102.7Q19.89687 102.21562 20.224995 101.98125Q20.55312 101.74687 20.99062 101.65312Q21.287495 101.60625 22.02187 101.60625L25.849995 101.60625L25.849995 102.65312L22.068745 102.65312Q21.412495 102.65312 21.099995 102.77812Q20.787495 102.90312 20.599995 103.21562Q20.39687 103.52812 20.39687 103.95Q20.39687 104.62187 20.83437 105.12187Q21.256245 105.60625 22.443745 105.60625L25.849995 105.60625L25.849995 106.65312ZM24.912495 97.35625L25.83437 97.2Q25.92812 97.65312 25.92812 97.99687Q25.92812 98.575 25.756245 98.8875Q25.568745 99.2 25.27187 99.34062Q24.974995 99.46562 24.02187 99.46562L20.443745 99.46562L20.443745 100.23125L19.631245 100.23125L19.631245 99.46562L18.08437 99.46562L17.45937 98.41875L19.631245 98.41875L19.631245 97.35625L20.443745 97.35625L20.443745 98.41875L24.08437 98.41875Q24.537495 98.41875 24.662495 98.37187Q24.787495 98.30937 24.86562 98.18437Q24.943745 98.05937 24.943745 97.825Q24.943745 97.6375 24.912495 97.35625ZM23.99062 97.075L23.83437 96.04375Q24.45937 95.95 24.787495 95.55937Q25.11562 95.15312 25.11562 94.41875Q25.11562 93.7 24.83437 93.35625Q24.537495 92.99687 24.131245 92.99687Q23.77187 92.99687 23.568745 93.30937Q23.42812 93.52812 23.20937 94.3875Q22.912495 95.54375 22.70937 95.99687Q22.49062 96.43437 22.11562 96.66875Q21.74062 96.90312 21.27187 96.90312Q20.86562 96.90312 20.506245 96.71562Q20.14687 96.52812 19.912495 96.2Q19.74062 95.95 19.61562 95.52812Q19.49062 95.10625 19.49062 94.60625Q19.49062 93.8875 19.70937 93.34062Q19.912495 92.77812 20.27187 92.5125Q20.631245 92.24687 21.224995 92.15312L21.36562 93.18437Q20.89687 93.24687 20.631245 93.59062Q20.349995 93.91875 20.349995 94.54375Q20.349995 95.2625 20.599995 95.575Q20.83437 95.8875 21.162495 95.8875Q21.36562 95.8875 21.52187 95.7625Q21.693745 95.62187 21.80312 95.35625Q21.86562 95.2 22.068745 94.41875Q22.381245 93.29375 22.568745 92.85625Q22.756245 92.41875 23.11562 92.16875Q23.474995 91.91875 24.02187 91.91875Q24.55312 91.91875 25.02187 92.23125Q25.474995 92.52812 25.74062 93.10625Q25.99062 93.68437 25.99062 94.41875Q25.99062 95.6375 25.49062 96.27812Q24.974995 96.90312 23.99062 97.075Z" fill-rule="nonzero"/><path fill="#000000" d="M61.35 229.91562Q61.35 228.38437 61.6625 227.4625Q61.975 226.525 62.584373 226.025Q63.209373 225.525 64.14687 225.525Q64.83437 225.525 65.35 225.80624Q65.88125 226.0875 66.225 226.61874Q66.56875 227.13437 66.75625 227.88437Q66.94375 228.63437 66.94375 229.91562Q66.94375 231.43124 66.63125 232.35312Q66.33437 233.275 65.70937 233.79062Q65.1 234.29062 64.14687 234.29062Q62.9125 234.29062 62.19375 233.4Q61.35 232.3375 61.35 229.91562ZM62.428123 229.91562Q62.428123 232.025 62.928123 232.72812Q63.428123 233.43124 64.14687 233.43124Q64.88125 233.43124 65.36562 232.72812Q65.86562 232.025 65.86562 229.91562Q65.86562 227.79062 65.36562 227.10312Q64.88125 226.4 64.13125 226.4Q63.4125 226.4 62.975 227.00937Q62.428123 227.79062 62.428123 229.91562Z" fill-rule="nonzero"/><path fill="#000000" d="M61.35 188.3L62.459373 188.20625Q62.584373 189.01875 63.021873 189.425Q63.475 189.83125 64.11562 189.83125Q64.86562 189.83125 65.39687 189.25313Q65.92812 188.675 65.92812 187.7375Q65.92812 186.83125 65.4125 186.31563Q64.9125 185.78438 64.08437 185.78438Q63.584373 185.78438 63.1625 186.01875Q62.75625 186.25313 62.521873 186.6125L61.5375 186.4875L62.365623 182.08125L66.64687 182.08125L66.64687 183.08125L63.209373 183.08125L62.75625 185.39375Q63.521873 184.84688 64.36562 184.84688Q65.49062 184.84688 66.25625 185.62813Q67.0375 186.40938 67.0375 187.64375Q67.0375 188.8 66.36562 189.65938Q65.5375 190.69063 64.11562 190.69063Q62.94375 190.69063 62.19375 190.03438Q61.459373 189.37813 61.35 188.3Z" fill-rule="nonzero"/><path fill="#000000" d="M58.31875 146.95L57.271873 146.95L57.271873 140.23125Q56.88125 140.59062 56.25625 140.96562Q55.646873 141.325 55.1625 141.49687L55.1625 140.48125Q56.0375 140.05937 56.69375 139.48125Q57.365623 138.8875 57.646873 138.325L58.31875 138.325L58.31875 146.95ZM61.35 142.71562Q61.35 141.18437 61.6625 140.2625Q61.975 139.325 62.584373 138.825Q63.209373 138.325 64.14687 138.325Q64.83437 138.325 65.35 138.60625Q65.88125 138.8875 66.225 139.41875Q66.56875 139.93437 66.75625 140.68437Q66.94375 141.43437 66.94375 142.71562Q66.94375 144.23125 66.63125 145.15312Q66.33437 146.075 65.70937 146.59062Q65.1 147.09062 64.14687 147.09062Q62.9125 147.09062 62.19375 146.2Q61.35 145.1375 61.35 142.71562ZM62.428123 142.71562Q62.428123 144.825 62.928123 145.52812Q63.428123 146.23125 64.14687 146.23125Q64.88125 146.23125 65.36562 145.52812Q65.86562 144.825 65.86562 142.71562Q65.86562 140.59062 65.36562 139.90312Q64.88125 139.2 64.13125 139.2Q63.4125 139.2 62.975 139.80937Q62.428123 140.59062 62.428123 142.71562Z" fill-rule="nonzero"/><path fill="#000000" d="M58.31875 103.35L57.271873 103.35L57.271873 96.63125Q56.88125 96.99062 56.25625 97.36562Q55.646873 97.725 55.1625 97.89687L55.1625 96.88125Q56.0375 96.45937 56.69375 95.88125Q57.365623 95.2875 57.646873 94.725L58.31875 94.725L58.31875 103.35ZM61.35 101.1L62.459373 101.00625Q62.584373 101.81875 63.021873 102.225Q63.475 102.63125 64.11562 102.63125Q64.86562 102.63125 65.39687 102.05312Q65.92812 101.475 65.92812 100.5375Q65.92812 99.63125 65.4125 99.11562Q64.9125 98.58437 64.08437 98.58437Q63.584373 98.58437 63.1625 98.81875Q62.75625 99.05312 62.521873 99.4125L61.5375 99.2875L62.365623 94.88125L66.64687 94.88125L66.64687 95.88125L63.209373 95.88125L62.75625 98.19375Q63.521873 97.64687 64.36562 97.64687Q65.49062 97.64687 66.25625 98.42812Q67.0375 99.20937 67.0375 100.44375Q67.0375 101.6 66.36562 102.45937Q65.5375 103.49062 64.11562 103.49062Q62.94375 103.49062 62.19375 102.83437Q61.459373 102.17812 61.35 101.1Z" fill-rule="nonzero"/><path fill="#000000" d="M59.896873 58.734375L59.896873 59.75L54.209373 59.75Q54.209373 59.375 54.334373 59.015625Q54.553123 58.4375 55.021873 57.875Q55.50625 57.3125 56.4125 56.578125Q57.81875 55.421875 58.303123 54.75Q58.803123 54.078125 58.803123 53.484375Q58.803123 52.859375 58.35 52.4375Q57.896873 52.0 57.178123 52.0Q56.4125 52.0 55.959373 52.453125Q55.50625 52.90625 55.490623 53.71875L54.4125 53.609375Q54.521873 52.390625 55.240623 51.765625Q55.975 51.125 57.209373 51.125Q58.44375 51.125 59.1625 51.8125Q59.88125 52.5 59.88125 53.515625Q59.88125 54.03125 59.6625 54.53125Q59.459373 55.015625 58.959373 55.578125Q58.475 56.125 57.35 57.078125Q56.396873 57.875 56.115623 58.171875Q55.85 58.453125 55.678123 58.734375L59.896873 58.734375ZM61.35 55.515625Q61.35 53.984375 61.6625 53.0625Q61.975 52.125 62.584373 51.625Q63.209373 51.125 64.14687 51.125Q64.83437 51.125 65.35 51.40625Q65.88125 51.6875 66.225 52.21875Q66.56875 52.734375 66.75625 53.484375Q66.94375 54.234375 66.94375 55.515625Q66.94375 57.03125 66.63125 57.953125Q66.33437 58.875 65.70937 59.390625Q65.1 59.890625 64.14687 59.890625Q62.9125 59.890625 62.19375 59.0Q61.35 57.9375 61.35 55.515625ZM62.428123 55.515625Q62.428123 57.625 62.928123 58.328125Q63.428123 59.03125 64.14687 59.03125Q64.88125 59.03125 65.36562 58.328125Q65.86562 57.625 65.86562 55.515625Q65.86562 53.390625 65.36562 52.703125Q64.88125 52.0 64.13125 52.0Q63.4125 52.0 62.975 52.609375Q62.428123 53.390625 62.428123 55.515625Z" fill-rule="nonzero"/><path fill="#000000" d="M96.98203 242.91562Q96.98203 241.38437 97.29453 240.4625Q97.60703 239.525 98.21641 239.025Q98.84141 238.525 99.77891 238.525Q100.46641 238.525 100.98203 238.80624Q101.51328 239.0875 101.85703 239.61874Q102.20078 240.13437 102.38828 240.88437Q102.57578 241.63437 102.57578 242.91562Q102.57578 244.43124 102.26328 245.35312Q101.96641 246.275 101.34141 246.79062Q100.73203 247.29062 99.77891 247.29062Q98.54453 247.29062 97.82578 246.4Q96.98203 245.3375 96.98203 242.91562ZM98.06016 242.91562Q98.06016 245.025 98.56016 245.72812Q99.06016 246.43124 99.77891 246.43124Q100.51328 246.43124 100.99766 245.72812Q101.49766 245.025 101.49766 242.91562Q101.49766 240.79062 100.99766 240.10312Q100.51328 239.4 99.76328 239.4Q99.04453 239.4 98.60703 240.00937Q98.06016 240.79062 98.06016 242.91562ZM103.85703 244.57187L103.85703 243.50937L107.10703 243.50937L107.10703 244.57187L103.85703 244.57187ZM113.52891 246.13437L113.52891 247.15L107.84141 247.15Q107.84141 246.775 107.96641 246.41562Q108.18516 245.8375 108.65391 245.275Q109.13828 244.7125 110.04453 243.97812Q111.45078 242.82187 111.93516 242.15Q112.43516 241.47812 112.43516 240.88437Q112.43516 240.25937 111.98203 239.8375Q111.52891 239.4 110.81016 239.4Q110.04453 239.4 109.59141 239.85312Q109.13828 240.30624 109.12266 241.11874L108.04453 241.00937Q108.15391 239.79062 108.87266 239.16562Q109.60703 238.525 110.84141 238.525Q112.07578 238.525 112.79453 239.2125Q113.51328 239.9 113.51328 240.91562Q113.51328 241.43124 113.29453 241.93124Q113.09141 242.41562 112.59141 242.97812Q112.10703 243.525 110.98203 244.47812Q110.02891 245.275 109.74766 245.57187Q109.48203 245.85312 109.31016 246.13437L113.52891 246.13437Z" fill-rule="nonzero"/><path fill="#000000" d="M149.34431 244.88437L150.40681 244.74374Q150.57869 245.63437 151.01619 246.04062Q151.45369 246.43124 152.07869 246.43124Q152.82869 246.43124 153.34431 245.91562Q153.85994 245.4 153.85994 244.63437Q153.85994 243.91562 153.37556 243.44687Q152.90681 242.9625 152.17244 242.9625Q151.87556 242.9625 151.42244 243.0875L151.54744 242.15Q151.65681 242.16562 151.71931 242.16562Q152.39119 242.16562 152.92244 241.82187Q153.46931 241.4625 153.46931 240.72812Q153.46931 240.15 153.07869 239.775Q152.68806 239.38437 152.06306 239.38437Q151.45369 239.38437 151.03181 239.775Q150.62556 240.16562 150.51619 240.93124L149.45369 240.74374Q149.64119 239.69687 150.32869 239.11874Q151.01619 238.525 152.03181 238.525Q152.73494 238.525 153.32869 238.8375Q153.92244 239.13437 154.23494 239.65Q154.54744 240.16562 154.54744 240.75937Q154.54744 241.30624 154.25056 241.775Q153.95369 242.22812 153.37556 242.49374Q154.12556 242.66562 154.54744 243.22812Q154.96931 243.775 154.96931 244.61874Q154.96931 245.74374 154.14119 246.525Q153.32869 247.30624 152.07869 247.30624Q150.95369 247.30624 150.20369 246.63437Q149.45369 245.94687 149.34431 244.88437Z" fill-rule="nonzero"/><path fill="#000000" d="M199.58159 247.15L199.58159 245.0875L195.86284 245.0875L195.86284 244.11874L199.78471 238.55624L200.64409 238.55624L200.64409 244.11874L201.80034 244.11874L201.80034 245.0875L200.64409 245.0875L200.64409 247.15L199.58159 247.15ZM199.58159 244.11874L199.58159 240.25937L196.89409 244.11874L199.58159 244.11874Z" fill-rule="nonzero"/><path fill="#000000" d="M243.06886 244.9L244.17824 244.80624Q244.30324 245.61874 244.74074 246.025Q245.19386 246.43124 245.83449 246.43124Q246.58449 246.43124 247.11574 245.85312Q247.64699 245.275 247.64699 244.3375Q247.64699 243.43124 247.13136 242.91562Q246.63136 242.38437 245.80324 242.38437Q245.30324 242.38437 244.88136 242.61874Q244.47511 242.85312 244.24074 243.2125L243.25636 243.0875L244.08449 238.68124L248.36574 238.68124L248.36574 239.68124L244.92824 239.68124L244.47511 241.99374Q245.24074 241.44687 246.08449 241.44687Q247.20949 241.44687 247.97511 242.22812Q248.75636 243.00937 248.75636 244.24374Q248.75636 245.4 248.08449 246.25937Q247.25636 247.29062 245.83449 247.29062Q244.66261 247.29062 243.91261 246.63437Q243.17824 245.97812 243.06886 244.9Z" fill-rule="nonzero"/><path fill="#000000" d="M295.3999 240.66562L294.35303 240.74374Q294.2124 240.11874 293.9624 239.8375Q293.5249 239.38437 292.8999 239.38437Q292.3999 239.38437 292.00928 239.66562Q291.5249 240.04062 291.22803 240.74374Q290.94678 241.43124 290.93115 242.7125Q291.30615 242.13437 291.85303 241.85312Q292.41553 241.57187 293.0249 241.57187Q294.07178 241.57187 294.80615 242.35312Q295.55615 243.13437 295.55615 244.35312Q295.55615 245.16562 295.19678 245.86874Q294.85303 246.55624 294.24365 246.93124Q293.63428 247.29062 292.86865 247.29062Q291.54053 247.29062 290.7124 246.32187Q289.88428 245.35312 289.88428 243.13437Q289.88428 240.63437 290.80615 239.50937Q291.60303 238.525 292.9624 238.525Q293.97803 238.525 294.61865 239.10312Q295.2749 239.66562 295.3999 240.66562ZM291.10303 244.36874Q291.10303 244.91562 291.32178 245.41562Q291.55615 245.9 291.9624 246.16562Q292.38428 246.43124 292.85303 246.43124Q293.50928 246.43124 293.99365 245.9Q294.47803 245.35312 294.47803 244.43124Q294.47803 243.54062 293.99365 243.025Q293.5249 242.50937 292.80615 242.50937Q292.0874 242.50937 291.5874 243.025Q291.10303 243.54062 291.10303 244.36874Z" fill-rule="nonzero"/><path fill="#000000" d="M336.85593 239.68124L336.85593 238.66562L342.41843 238.66562L342.41843 239.49374Q341.60593 240.36874 340.79343 241.82187Q339.99655 243.25937 339.55905 244.79062Q339.23093 245.86874 339.1528 247.15L338.05905 247.15Q338.07468 246.13437 338.44968 244.69687Q338.8403 243.25937 339.54343 241.93124Q340.26218 240.60312 341.07468 239.68124L336.85593 239.68124Z" fill-rule="nonzero"/><path fill="#000000" d="M385.2807 242.49374Q384.62445 242.24374 384.29633 241.80624Q383.98383 241.35312 383.98383 240.74374Q383.98383 239.80624 384.6557 239.16562Q385.3432 238.525 386.45258 238.525Q387.57758 238.525 388.26508 239.18124Q388.95258 239.8375 388.95258 240.775Q388.95258 241.36874 388.64008 241.80624Q388.32758 242.24374 387.68695 242.49374Q388.48383 242.74374 388.89008 243.32187Q389.29633 243.9 389.29633 244.69687Q389.29633 245.79062 388.51508 246.54062Q387.74945 247.29062 386.4682 247.29062Q385.20258 247.29062 384.42133 246.54062Q383.64008 245.79062 383.64008 244.66562Q383.64008 243.82187 384.06195 243.25937Q384.49945 242.69687 385.2807 242.49374ZM385.06195 240.69687Q385.06195 241.30624 385.45258 241.69687Q385.85883 242.0875 386.48383 242.0875Q387.0932 242.0875 387.48383 241.7125Q387.87445 241.32187 387.87445 240.75937Q387.87445 240.18124 387.4682 239.79062Q387.06195 239.38437 386.4682 239.38437Q385.85883 239.38437 385.45258 239.775Q385.06195 240.16562 385.06195 240.69687ZM384.73383 244.66562Q384.73383 245.11874 384.93695 245.54062Q385.1557 245.9625 385.57758 246.19687Q385.99945 246.43124 386.48383 246.43124Q387.23383 246.43124 387.7182 245.94687Q388.2182 245.4625 388.2182 244.7125Q388.2182 243.94687 387.7182 243.44687Q387.2182 242.94687 386.45258 242.94687Q385.70258 242.94687 385.2182 243.44687Q384.73383 243.93124 384.73383 244.66562Z" fill-rule="nonzero"/><path fill="#000000" d="M430.98672 247.15L429.93985 247.15L429.93985 240.43124Q429.54922 240.79062 428.92422 241.16562Q428.31485 241.525 427.83047 241.69687L427.83047 240.68124Q428.70547 240.25937 429.36172 239.68124Q430.0336 239.0875 430.31485 238.525L430.98672 238.525L430.98672 247.15ZM435.64297 242.49374Q434.98672 242.24374 434.6586 241.80624Q434.3461 241.35312 434.3461 240.74374Q434.3461 239.80624 435.01797 239.16562Q435.70547 238.525 436.81485 238.525Q437.93985 238.525 438.62735 239.18124Q439.31485 239.8375 439.31485 240.775Q439.31485 241.36874 439.00235 241.80624Q438.68985 242.24374 438.04922 242.49374Q438.8461 242.74374 439.25235 243.32187Q439.6586 243.9 439.6586 244.69687Q439.6586 245.79062 438.87735 246.54062Q438.11172 247.29062 436.83047 247.29062Q435.56485 247.29062 434.7836 246.54062Q434.00235 245.79062 434.00235 244.66562Q434.00235 243.82187 434.42422 243.25937Q434.86172 242.69687 435.64297 242.49374ZM435.42422 240.69687Q435.42422 241.30624 435.81485 241.69687Q436.2211 242.0875 436.8461 242.0875Q437.45547 242.0875 437.8461 241.7125Q438.23672 241.32187 438.23672 240.75937Q438.23672 240.18124 437.83047 239.79062Q437.42422 239.38437 436.83047 239.38437Q436.2211 239.38437 435.81485 239.775Q435.42422 240.16562 435.42422 240.69687ZM435.0961 244.66562Q435.0961 245.11874 435.29922 245.54062Q435.51797 245.9625 435.93985 246.19687Q436.36172 246.43124 436.8461 246.43124Q437.5961 246.43124 438.08047 245.94687Q438.58047 245.4625 438.58047 244.7125Q438.58047 243.94687 438.08047 243.44687Q437.58047 242.94687 436.81485 242.94687Q436.06485 242.94687 435.58047 243.44687Q435.0961 243.93124 435.0961 244.66562Z" fill-rule="nonzero"/><path fill="#757575" d="M16.396875 33.85L16.396875 19.537498L21.31875 19.537498Q22.990625 19.537498 23.88125 19.740623Q25.1 20.021873 25.975 20.756248Q27.1 21.724998 27.6625 23.209373Q28.225 24.693748 28.225 26.615623Q28.225 28.240623 27.85 29.506248Q27.475 30.756248 26.865625 31.584373Q26.271875 32.4125 25.56875 32.896873Q24.865625 33.365623 23.865625 33.615623Q22.865625 33.85 21.553125 33.85L16.396875 33.85ZM18.2875 32.1625L21.35 32.1625Q22.75625 32.1625 23.553125 31.896873Q24.365625 31.631248 24.85 31.146873Q25.521875 30.474998 25.896875 29.349998Q26.271875 28.209373 26.271875 26.584373Q26.271875 24.334373 25.5375 23.131248Q24.803125 21.928123 23.740625 21.521873Q22.990625 21.224998 21.303125 21.224998L18.2875 21.224998L18.2875 32.1625ZM30.178125 21.553123L30.178125 19.537498L31.94375 19.537498L31.94375 21.553123L30.178125 21.553123ZM30.178125 33.85L30.178125 23.474998L31.94375 23.474998L31.94375 33.85L30.178125 33.85ZM34.146873 33.85L34.146873 23.474998L35.725 23.474998L35.725 25.053123Q36.334373 23.943748 36.85 23.599998Q37.365623 23.240623 37.975 23.240623Q38.865623 23.240623 39.7875 23.803123L39.178123 25.443748Q38.5375 25.053123 37.896873 25.053123Q37.31875 25.053123 36.85 25.412498Q36.396873 25.756248 36.19375 26.365623Q35.9125 27.303123 35.9125 28.412498L35.9125 33.85L34.146873 33.85ZM48.271873 30.506248L50.084373 30.740623Q49.6625 32.31875 48.490623 33.209373Q47.334373 34.084373 45.521873 34.084373Q43.25625 34.084373 41.9125 32.69375Q40.584373 31.287498 40.584373 28.756248Q40.584373 26.131248 41.928123 24.693748Q43.271873 23.240623 45.428123 23.240623Q47.50625 23.240623 48.81875 24.662498Q50.146873 26.068748 50.146873 28.646873Q50.146873 28.803123 50.13125 29.115623L42.396873 29.115623Q42.490623 30.818748 43.365623 31.724998Q44.240623 32.63125 45.5375 32.63125Q46.50625 32.63125 47.178123 32.13125Q47.865623 31.615623 48.271873 30.506248ZM42.490623 27.662498L48.2875 27.662498Q48.178123 26.365623 47.63125 25.709373Q46.7875 24.693748 45.44375 24.693748Q44.240623 24.693748 43.4125 25.506248Q42.584373 26.303123 42.490623 27.662498ZM58.94375 30.053123L60.6625 30.271873Q60.38125 32.06875 59.209373 33.084373Q58.053123 34.084373 56.35 34.084373Q54.225 34.084373 52.928123 32.69375Q51.63125 31.303123 51.63125 28.709373Q51.63125 27.021873 52.178123 25.771873Q52.740623 24.506248 53.88125 23.881248Q55.021873 23.240623 56.365623 23.240623Q58.053123 23.240623 59.115623 24.099998Q60.19375 24.959373 60.50625 26.521873L58.7875 26.787498Q58.553123 25.740623 57.928123 25.224998Q57.303123 24.693748 56.428123 24.693748Q55.1 24.693748 54.271873 25.646873Q53.44375 26.599998 53.44375 28.646873Q53.44375 30.740623 54.240623 31.693748Q55.0375 32.63125 56.334373 32.63125Q57.365623 32.63125 58.053123 32.00625Q58.75625 31.365623 58.94375 30.053123ZM66.00625 32.271873L66.25625 33.834373Q65.52187 33.990623 64.92812 33.990623Q63.975 33.990623 63.44375 33.69375Q62.928123 33.38125 62.709373 32.896873Q62.490623 32.396873 62.490623 30.818748L62.490623 24.849998L61.209373 24.849998L61.209373 23.474998L62.490623 23.474998L62.490623 20.912498L64.24062 19.849998L64.24062 23.474998L66.00625 23.474998L66.00625 24.849998L64.24062 24.849998L64.24062 30.912498Q64.24062 31.662498 64.33437 31.881248Q64.42812 32.084373 64.63125 32.225Q64.85 32.35 65.24062 32.35Q65.52187 32.35 66.00625 32.271873ZM72.81875 33.85L78.31875 19.537498L80.36562 19.537498L86.225 33.85L84.06875 33.85L82.39687 29.506248L76.4125 29.506248L74.83437 33.85L72.81875 33.85ZM76.95937 27.974998L81.80312 27.974998L80.31875 24.006248Q79.63125 22.193748 79.30312 21.037498Q79.02187 22.412498 78.52187 23.771873L76.95937 27.974998ZM87.1625 37.81875L87.1625 23.474998L88.77187 23.474998L88.77187 24.818748Q89.33437 24.037498 90.0375 23.646873Q90.75625 23.240623 91.77187 23.240623Q93.1 23.240623 94.11562 23.928123Q95.13125 24.615623 95.64687 25.865623Q96.17812 27.099998 96.17812 28.584373Q96.17812 30.178123 95.6 31.459373Q95.0375 32.725 93.94375 33.4125Q92.85 34.084373 91.64687 34.084373Q90.77187 34.084373 90.06875 33.709373Q89.38125 33.334373 88.92812 32.771873L88.92812 37.81875L87.1625 37.81875ZM88.75625 28.724998Q88.75625 30.724998 89.56875 31.678123Q90.38125 32.63125 91.5375 32.63125Q92.70937 32.63125 93.5375 31.646873Q94.38125 30.662498 94.38125 28.568748Q94.38125 26.599998 93.55312 25.615623Q92.74062 24.615623 91.61562 24.615623Q90.49062 24.615623 89.61562 25.678123Q88.75625 26.724998 88.75625 28.724998ZM98.1625 37.81875L98.1625 23.474998L99.77187 23.474998L99.77187 24.818748Q100.33437 24.037498 101.0375 23.646873Q101.75625 23.240623 102.77187 23.240623Q104.1 23.240623 105.11562 23.928123Q106.13125 24.615623 106.64687 25.865623Q107.17812 27.099998 107.17812 28.584373Q107.17812 30.178123 106.6 31.459373Q106.0375 32.725 104.94375 33.4125Q103.85 34.084373 102.64687 34.084373Q101.77187 34.084373 101.06875 33.709373Q100.38125 33.334373 99.92812 32.771873L99.92812 37.81875L98.1625 37.81875ZM99.75625 28.724998Q99.75625 30.724998 100.56875 31.678123Q101.38125 32.63125 102.5375 32.63125Q103.70937 32.63125 104.5375 31.646873Q105.38125 30.662498 105.38125 28.568748Q105.38125 26.599998 104.55312 25.615623Q103.74062 24.615623 102.61562 24.615623Q101.49062 24.615623 100.61562 25.678123Q99.75625 26.724998 99.75625 28.724998ZM109.13125 33.85L109.13125 19.537498L110.88125 19.537498L110.88125 33.85L109.13125 33.85ZM113.17812 21.553123L113.17812 19.537498L114.94375 19.537498L114.94375 21.553123L113.17812 21.553123ZM113.17812 33.85L113.17812 23.474998L114.94375 23.474998L114.94375 33.85L113.17812 33.85ZM123.94375 30.053123L125.6625 30.271873Q125.38125 32.06875 124.20937 33.084373Q123.05312 34.084373 121.35 34.084373Q119.225 34.084373 117.92812 32.69375Q116.63125 31.303123 116.63125 28.709373Q116.63125 27.021873 117.17812 25.771873Q117.74062 24.506248 118.88125 23.881248Q120.02187 23.240623 121.36562 23.240623Q123.05312 23.240623 124.11562 24.099998Q125.19375 24.959373 125.50625 26.521873L123.7875 26.787498Q123.55312 25.740623 122.92812 25.224998Q122.30312 24.693748 121.42812 24.693748Q120.1 24.693748 119.27187 25.646873Q118.44375 26.599998 118.44375 28.646873Q118.44375 30.740623 119.24062 31.693748Q120.0375 32.63125 121.33437 32.63125Q122.36562 32.63125 123.05312 32.00625Q123.75625 31.365623 123.94375 30.053123ZM133.94376 32.56875Q132.95938 33.396873 132.05313 33.740623Q131.14688 34.084373 130.11563 34.084373Q128.4125 34.084373 127.49062 33.25625Q126.56875 32.4125 126.56875 31.115623Q126.56875 30.349998 126.9125 29.724998Q127.27187 29.099998 127.83437 28.724998Q128.39688 28.334373 129.1 28.131248Q129.61563 28.006248 130.6625 27.865623Q132.7875 27.615623 133.7875 27.271873Q133.80313 26.912498 133.80313 26.803123Q133.80313 25.740623 133.30313 25.287498Q132.63126 24.693748 131.30313 24.693748Q130.05313 24.693748 129.45938 25.131248Q128.88126 25.568748 128.6 26.678123L126.88125 26.443748Q127.11562 25.334373 127.64687 24.662498Q128.17813 23.974998 129.19376 23.615623Q130.20938 23.240623 131.55313 23.240623Q132.88126 23.240623 133.70938 23.553123Q134.5375 23.865623 134.92813 24.349998Q135.31876 24.818748 135.475 25.537498Q135.56876 25.990623 135.56876 27.162498L135.56876 29.506248Q135.56876 31.959373 135.67813 32.615623Q135.7875 33.25625 136.13126 33.85L134.2875 33.85Q134.02188 33.303123 133.94376 32.56875ZM133.7875 28.646873Q132.83438 29.037498 130.9125 29.303123Q129.83438 29.459373 129.38126 29.662498Q128.94376 29.849998 128.69376 30.224998Q128.44376 30.599998 128.44376 31.068748Q128.44376 31.771873 128.975 32.240623Q129.50626 32.709373 130.5375 32.709373Q131.55313 32.709373 132.33438 32.271873Q133.13126 31.818748 133.50626 31.053123Q133.7875 30.443748 133.7875 29.287498L133.7875 28.646873ZM138.1625 33.85L138.1625 23.474998L139.75626 23.474998L139.75626 24.959373Q140.89688 23.240623 143.05313 23.240623Q143.99063 23.240623 144.77188 23.584373Q145.56876 23.912498 145.95938 24.459373Q146.35 25.006248 146.50626 25.756248Q146.6 26.256248 146.6 27.474998L146.6 33.85L144.83438 33.85L144.83438 27.537498Q144.83438 26.459373 144.63126 25.928123Q144.42813 25.396873 143.89688 25.084373Q143.38126 24.771873 142.67813 24.771873Q141.55313 24.771873 140.74063 25.490623Q139.92813 26.193748 139.92813 28.178123L139.92813 33.85L138.1625 33.85ZM153.00626 32.271873L153.25626 33.834373Q152.52188 33.990623 151.92813 33.990623Q150.975 33.990623 150.44376 33.69375Q149.92813 33.38125 149.70938 32.896873Q149.49063 32.396873 149.49063 30.818748L149.49063 24.849998L148.20938 24.849998L148.20938 23.474998L149.49063 23.474998L149.49063 20.912498L151.24063 19.849998L151.24063 23.474998L153.00626 23.474998L153.00626 24.849998L151.24063 24.849998L151.24063 30.912498Q151.24063 31.662498 151.33438 31.881248Q151.42813 32.084373 151.63126 32.225Q151.85 32.35 152.24063 32.35Q152.52188 32.35 153.00626 32.271873ZM154.45938 30.756248L156.20938 30.474998Q156.35 31.521873 157.02188 32.084373Q157.69376 32.63125 158.89688 32.63125Q160.1 32.63125 160.67813 32.146873Q161.27188 31.646873 161.27188 30.990623Q161.27188 30.396873 160.75626 30.053123Q160.39688 29.818748 158.95938 29.459373Q157.02188 28.959373 156.27188 28.615623Q155.5375 28.256248 155.14688 27.631248Q154.75626 26.990623 154.75626 26.224998Q154.75626 25.537498 155.06876 24.943748Q155.39688 24.349998 155.94376 23.959373Q156.35 23.662498 157.05313 23.459373Q157.77188 23.240623 158.58438 23.240623Q159.80313 23.240623 160.725 23.599998Q161.64688 23.943748 162.08438 24.553123Q162.52188 25.146873 162.69376 26.146873L160.975 26.381248Q160.85 25.584373 160.2875 25.146873Q159.725 24.693748 158.70938 24.693748Q157.49063 24.693748 156.975 25.099998Q156.45938 25.490623 156.45938 26.021873Q156.45938 26.365623 156.67813 26.646873Q156.88126 26.928123 157.35 27.115623Q157.61563 27.209373 158.89688 27.553123Q160.77188 28.053123 161.50626 28.381248Q162.24063 28.693748 162.6625 29.303123Q163.08438 29.896873 163.08438 30.803123Q163.08438 31.678123 162.56876 32.459373Q162.05313 33.240623 161.08438 33.6625Q160.11563 34.084373 158.89688 34.084373Q156.88126 34.084373 155.81876 33.240623Q154.75626 32.396873 154.45938 30.756248ZM174.05313 33.85L170.1 23.474998L171.95938 23.474998L174.19376 29.693748Q174.55313 30.693748 174.85 31.771873Q175.08438 30.959373 175.50626 29.803123L177.80313 23.474998L179.61563 23.474998L175.69376 33.85L174.05313 33.85ZM180.45938 30.756248L182.20938 30.474998Q182.35 31.521873 183.02188 32.084373Q183.69376 32.63125 184.89688 32.63125Q186.1 32.63125 186.67813 32.146873Q187.27188 31.646873 187.27188 30.990623Q187.27188 30.396873 186.75626 30.053123Q186.39688 29.818748 184.95938 29.459373Q183.02188 28.959373 182.27188 28.615623Q181.5375 28.256248 181.14688 27.631248Q180.75626 26.990623 180.75626 26.224998Q180.75626 25.537498 181.06876 24.943748Q181.39688 24.349998 181.94376 23.959373Q182.35 23.662498 183.05313 23.459373Q183.77188 23.240623 184.58438 23.240623Q185.80313 23.240623 186.725 23.599998Q187.64688 23.943748 188.08438 24.553123Q188.52188 25.146873 188.69376 26.146873L186.975 26.381248Q186.85 25.584373 186.2875 25.146873Q185.725 24.693748 184.70938 24.693748Q183.49063 24.693748 182.975 25.099998Q182.45938 25.490623 182.45938 26.021873Q182.45938 26.365623 182.67813 26.646873Q182.88126 26.928123 183.35 27.115623Q183.61563 27.209373 184.89688 27.553123Q186.77188 28.053123 187.50626 28.381248Q188.24063 28.693748 188.6625 29.303123Q189.08438 29.896873 189.08438 30.803123Q189.08438 31.678123 188.56876 32.459373Q188.05313 33.240623 187.08438 33.6625Q186.11563 34.084373 184.89688 34.084373Q182.88126 34.084373 181.81876 33.240623Q180.75626 32.396873 180.45938 30.756248ZM191.6625 33.85L191.6625 31.849998L193.6625 31.849998L193.6625 33.85L191.6625 33.85ZM207.42813 33.85L207.42813 27.787498L201.9125 19.537498L204.20938 19.537498L207.0375 23.849998Q207.81876 25.053123 208.49063 26.271873Q209.13126 25.146873 210.05313 23.740623L212.83438 19.537498L215.0375 19.537498L209.31876 27.787498L209.31876 33.85L207.42813 33.85ZM223.27188 30.506248L225.08438 30.740623Q224.6625 32.31875 223.49063 33.209373Q222.33438 34.084373 220.52188 34.084373Q218.25626 34.084373 216.9125 32.69375Q215.58438 31.287498 215.58438 28.756248Q215.58438 26.131248 216.92813 24.693748Q218.27188 23.240623 220.42813 23.240623Q222.50626 23.240623 223.81876 24.662498Q225.14688 26.068748 225.14688 28.646873Q225.14688 28.803123 225.13126 29.115623L217.39688 29.115623Q217.49063 30.818748 218.36563 31.724998Q219.24063 32.63125 220.5375 32.63125Q221.50626 32.63125 222.17813 32.13125Q222.86563 31.615623 223.27188 30.506248ZM217.49063 27.662498L223.2875 27.662498Q223.17813 26.365623 222.63126 25.709373Q221.7875 24.693748 220.44376 24.693748Q219.24063 24.693748 218.4125 25.506248Q217.58438 26.303123 217.49063 27.662498ZM233.94376 32.56875Q232.95938 33.396873 232.05313 33.740623Q231.14688 34.084373 230.11563 34.084373Q228.4125 34.084373 227.49063 33.25625Q226.56876 32.4125 226.56876 31.115623Q226.56876 30.349998 226.9125 29.724998Q227.27188 29.099998 227.83438 28.724998Q228.39688 28.334373 229.1 28.131248Q229.61563 28.006248 230.6625 27.865623Q232.7875 27.615623 233.7875 27.271873Q233.80313 26.912498 233.80313 26.803123Q233.80313 25.740623 233.30313 25.287498Q232.63126 24.693748 231.30313 24.693748Q230.05313 24.693748 229.45938 25.131248Q228.88126 25.568748 228.6 26.678123L226.88126 26.443748Q227.11563 25.334373 227.64688 24.662498Q228.17813 23.974998 229.19376 23.615623Q230.20938 23.240623 231.55313 23.240623Q232.88126 23.240623 233.70938 23.553123Q234.5375 23.865623 234.92813 24.349998Q235.31876 24.818748 235.475 25.537498Q235.56876 25.990623 235.56876 27.162498L235.56876 29.506248Q235.56876 31.959373 235.67813 32.615623Q235.7875 33.25625 236.13126 33.85L234.2875 33.85Q234.02188 33.303123 233.94376 32.56875ZM233.7875 28.646873Q232.83438 29.037498 230.9125 29.303123Q229.83438 29.459373 229.38126 29.662498Q228.94376 29.849998 228.69376 30.224998Q228.44376 30.599998 228.44376 31.068748Q228.44376 31.771873 228.975 32.240623Q229.50626 32.709373 230.5375 32.709373Q231.55313 32.709373 232.33438 32.271873Q233.13126 31.818748 233.50626 31.053123Q233.7875 30.443748 233.7875 29.287498L233.7875 28.646873ZM238.14688 33.85L238.14688 23.474998L239.725 23.474998L239.725 25.053123Q240.33438 23.943748 240.85 23.599998Q241.36563 23.240623 241.975 23.240623Q242.86563 23.240623 243.7875 23.803123L243.17813 25.443748Q242.5375 25.053123 241.89688 25.053123Q241.31876 25.053123 240.85 25.412498Q240.39688 25.756248 240.19376 26.365623Q239.9125 27.303123 239.9125 28.412498L239.9125 33.85L238.14688 33.85ZM244.45938 30.756248L246.20938 30.474998Q246.35 31.521873 247.02188 32.084373Q247.69376 32.63125 248.89688 32.63125Q250.1 32.63125 250.67813 32.146873Q251.27188 31.646873 251.27188 30.990623Q251.27188 30.396873 250.75626 30.053123Q250.39688 29.818748 248.95938 29.459373Q247.02188 28.959373 246.27188 28.615623Q245.5375 28.256248 245.14688 27.631248Q244.75626 26.990623 244.75626 26.224998Q244.75626 25.537498 245.06876 24.943748Q245.39688 24.349998 245.94376 23.959373Q246.35 23.662498 247.05313 23.459373Q247.77188 23.240623 248.58438 23.240623Q249.80313 23.240623 250.725 23.599998Q251.64688 23.943748 252.08438 24.553123Q252.52188 25.146873 252.69376 26.146873L250.975 26.381248Q250.85 25.584373 250.2875 25.146873Q249.725 24.693748 248.70938 24.693748Q247.49063 24.693748 246.975 25.099998Q246.45938 25.490623 246.45938 26.021873Q246.45938 26.365623 246.67813 26.646873Q246.88126 26.928123 247.35 27.115623Q247.61563 27.209373 248.89688 27.553123Q250.77188 28.053123 251.50626 28.381248Q252.24063 28.693748 252.6625 29.303123Q253.08438 29.896873 253.08438 30.803123Q253.08438 31.678123 252.56876 32.459373Q252.05313 33.240623 251.08438 33.6625Q250.11563 34.084373 248.89688 34.084373Q246.88126 34.084373 245.81876 33.240623Q244.75626 32.396873 244.45938 30.756248ZM261.42813 33.85L261.42813 19.537498L271.7875 19.537498L271.7875 21.224998L263.33438 21.224998L263.33438 25.599998L271.24063 25.599998L271.24063 27.287498L263.33438 27.287498L263.33438 32.1625L272.11563 32.1625L272.11563 33.85L261.42813 33.85ZM272.99063 33.85L276.7875 28.459373L273.2875 23.474998L275.475 23.474998L277.06876 25.912498Q277.52188 26.599998 277.7875 27.068748Q278.225 26.428123 278.58438 25.928123L280.33438 23.474998L282.42813 23.474998L278.85 28.365623L282.70938 33.85L280.55313 33.85L278.4125 30.631248L277.85 29.756248L275.13126 33.85L272.99063 33.85ZM284.1625 37.81875L284.1625 23.474998L285.77188 23.474998L285.77188 24.818748Q286.33438 24.037498 287.0375 23.646873Q287.75626 23.240623 288.77188 23.240623Q290.1 23.240623 291.11563 23.928123Q292.13126 24.615623 292.64688 25.865623Q293.17813 27.099998 293.17813 28.584373Q293.17813 30.178123 292.6 31.459373Q292.0375 32.725 290.94376 33.4125Q289.85 34.084373 288.64688 34.084373Q287.77188 34.084373 287.06876 33.709373Q286.38126 33.334373 285.92813 32.771873L285.92813 37.81875L284.1625 37.81875ZM285.75626 28.724998Q285.75626 30.724998 286.56876 31.678123Q287.38126 32.63125 288.5375 32.63125Q289.70938 32.63125 290.5375 31.646873Q291.38126 30.662498 291.38126 28.568748Q291.38126 26.599998 290.55313 25.615623Q289.74063 24.615623 288.61563 24.615623Q287.49063 24.615623 286.61563 25.678123Q285.75626 26.724998 285.75626 28.724998ZM302.27188 30.506248L304.08438 30.740623Q303.6625 32.31875 302.49063 33.209373Q301.33438 34.084373 299.52188 34.084373Q297.25626 34.084373 295.9125 32.69375Q294.58438 31.287498 294.58438 28.756248Q294.58438 26.131248 295.92813 24.693748Q297.27188 23.240623 299.42813 23.240623Q301.50626 23.240623 302.81876 24.662498Q304.14688 26.068748 304.14688 28.646873Q304.14688 28.803123 304.13126 29.115623L296.39688 29.115623Q296.49063 30.818748 297.36563 31.724998Q298.24063 32.63125 299.5375 32.63125Q300.50626 32.63125 301.17813 32.13125Q301.86563 31.615623 302.27188 30.506248ZM296.49063 27.662498L302.2875 27.662498Q302.17813 26.365623 301.63126 25.709373Q300.7875 24.693748 299.44376 24.693748Q298.24063 24.693748 297.4125 25.506248Q296.58438 26.303123 296.49063 27.662498ZM306.14688 33.85L306.14688 23.474998L307.725 23.474998L307.725 25.053123Q308.33438 23.943748 308.85 23.599998Q309.36563 23.240623 309.975 23.240623Q310.86563 23.240623 311.7875 23.803123L311.17813 25.443748Q310.5375 25.053123 309.89688 25.053123Q309.31876 25.053123 308.85 25.412498Q308.39688 25.756248 308.19376 26.365623Q307.9125 27.303123 307.9125 28.412498L307.9125 33.85L306.14688 33.85ZM313.17813 21.553123L313.17813 19.537498L314.94376 19.537498L314.94376 21.553123L313.17813 21.553123ZM313.17813 33.85L313.17813 23.474998L314.94376 23.474998L314.94376 33.85L313.17813 33.85ZM324.27188 30.506248L326.08438 30.740623Q325.6625 32.31875 324.49063 33.209373Q323.33438 34.084373 321.52188 34.084373Q319.25626 34.084373 317.9125 32.69375Q316.58438 31.287498 316.58438 28.756248Q316.58438 26.131248 317.92813 24.693748Q319.27188 23.240623 321.42813 23.240623Q323.50626 23.240623 324.81876 24.662498Q326.14688 26.068748 326.14688 28.646873Q326.14688 28.803123 326.13126 29.115623L318.39688 29.115623Q318.49063 30.818748 319.36563 31.724998Q320.24063 32.63125 321.5375 32.63125Q322.50626 32.63125 323.17813 32.13125Q323.86563 31.615623 324.27188 30.506248ZM318.49063 27.662498L324.2875 27.662498Q324.17813 26.365623 323.63126 25.709373Q322.7875 24.693748 321.44376 24.693748Q320.24063 24.693748 319.4125 25.506248Q318.58438 26.303123 318.49063 27.662498ZM328.1625 33.85L328.1625 23.474998L329.75626 23.474998L329.75626 24.959373Q330.89688 23.240623 333.05313 23.240623Q333.99063 23.240623 334.77188 23.584373Q335.56876 23.912498 335.95938 24.459373Q336.35 25.006248 336.50626 25.756248Q336.6 26.256248 336.6 27.474998L336.6 33.85L334.83438 33.85L334.83438 27.537498Q334.83438 26.459373 334.63126 25.928123Q334.42813 25.396873 333.89688 25.084373Q333.38126 24.771873 332.67813 24.771873Q331.55313 24.771873 330.74063 25.490623Q329.92813 26.193748 329.92813 28.178123L329.92813 33.85L328.1625 33.85ZM345.94376 30.053123L347.6625 30.271873Q347.38126 32.06875 346.20938 33.084373Q345.05313 34.084373 343.35 34.084373Q341.225 34.084373 339.92813 32.69375Q338.63126 31.303123 338.63126 28.709373Q338.63126 27.021873 339.17813 25.771873Q339.74063 24.506248 340.88126 23.881248Q342.02188 23.240623 343.36563 23.240623Q345.05313 23.240623 346.11563 24.099998Q347.19376 24.959373 347.50626 26.521873L345.7875 26.787498Q345.55313 25.740623 344.92813 25.224998Q344.30313 24.693748 343.42813 24.693748Q342.1 24.693748 341.27188 25.646873Q340.44376 26.599998 340.44376 28.646873Q340.44376 30.740623 341.24063 31.693748Q342.0375 32.63125 343.33438 32.63125Q344.36563 32.63125 345.05313 32.00625Q345.75626 31.365623 345.94376 30.053123ZM356.27188 30.506248L358.08438 30.740623Q357.6625 32.31875 356.49063 33.209373Q355.33438 34.084373 353.52188 34.084373Q351.25626 34.084373 349.9125 32.69375Q348.58438 31.287498 348.58438 28.756248Q348.58438 26.131248 349.92813 24.693748Q351.27188 23.240623 353.42813 23.240623Q355.50626 23.240623 356.81876 24.662498Q358.14688 26.068748 358.14688 28.646873Q358.14688 28.803123 358.13126 29.115623L350.39688 29.115623Q350.49063 30.818748 351.36563 31.724998Q352.24063 32.63125 353.5375 32.63125Q354.50626 32.63125 355.17813 32.13125Q355.86563 31.615623 356.27188 30.506248ZM350.49063 27.662498L356.2875 27.662498Q356.17813 26.365623 355.63126 25.709373Q354.7875 24.693748 353.44376 24.693748Q352.24063 24.693748 351.4125 25.506248Q350.58438 26.303123 350.49063 27.662498Z" fill-rule="nonzero"/></svg>