<svg version="1.1" viewBox="0.0 0.0 480.0 297.0" fill="none" stroke="none" stroke-linecap="square" stroke-miterlimit="10" width="480" height="297" xmlns:xlink="http://www.w3.org/1999/xlink" xmlns="http://www.w3.org/2000/svg"><path fill="#ffffff" d="M0 0L480.0 0L480.0 297.0L0 297.0L0 0Z" fill-rule="nonzero"/><path fill="#ea4335" d="M146.87138 95.122536C168.92589 65.91767 203.40321 48.75 240.0 48.75L240.0 165.45Z" fill-rule="nonzero"/><path fill="#4285f4" d="M240.0 48.75C294.15878 48.75 341.20053 86.011246 353.60022 138.73148C365.9999 191.45169 340.49863 245.7749 292.01767 269.91556C243.53671 294.0562 184.81789 281.66962 150.21872 240.00342C115.61956 198.33723 114.23343 138.34218 146.87138 95.122536L240.0 165.45Z" fill-rule="nonzero"/><path fill="#1a1a1a" d="M15.834375 61.70772L15.834375 53.11397L21.63125 53.11397L21.63125 54.129597L16.975 54.129597L16.975 56.785847L21.00625 56.785847L21.00625 57.80147L16.975 57.80147L16.975 61.70772L15.834375 61.70772ZM26.896875 59.70772L27.990625 59.83272Q27.740625 60.785847 27.0375 61.317097Q26.334375 61.848347 25.25625 61.848347Q23.896875 61.848347 23.084375 61.004597Q22.2875 60.160847 22.2875 58.64522Q22.2875 57.08272 23.1 56.223347Q23.9125 55.348347 25.19375 55.348347Q26.44375 55.348347 27.225 56.192097Q28.021875 57.035847 28.021875 58.58272Q28.021875 58.67647 28.021875 58.86397L23.38125 58.86397Q23.44375 59.89522 23.959375 60.442097Q24.475 60.973347 25.25625 60.973347Q25.834375 60.973347 26.240625 60.67647Q26.6625 60.36397 26.896875 59.70772ZM23.44375 58.004597L26.9125 58.004597Q26.85 57.20772 26.521875 56.817097Q26.00625 56.20772 25.209375 56.20772Q24.475 56.20772 23.975 56.692097Q23.490625 57.17647 23.44375 58.004597ZM29.646875 61.70772L29.646875 55.48897L30.584375 55.48897L30.584375 56.36397Q30.88125 55.89522 31.365625 55.629597Q31.85 55.348347 32.475 55.348347Q33.1625 55.348347 33.6 55.629597Q34.053123 55.910847 34.225 56.42647Q34.975 55.348347 36.146873 55.348347Q37.084373 55.348347 37.56875 55.86397Q38.06875 56.36397 38.06875 57.442097L38.06875 61.70772L37.021873 61.70772L37.021873 57.785847Q37.021873 57.160847 36.9125 56.879597Q36.81875 56.598347 36.553123 56.42647Q36.2875 56.254597 35.9125 56.254597Q35.25625 56.254597 34.81875 56.692097Q34.396873 57.129597 34.396873 58.098347L34.396873 61.70772L33.334373 61.70772L33.334373 57.660847Q33.334373 56.95772 33.06875 56.61397Q32.81875 56.254597 32.240623 56.254597Q31.7875 56.254597 31.4125 56.48897Q31.0375 56.723347 30.865625 57.17647Q30.69375 57.629597 30.69375 58.473347L30.69375 61.70772L29.646875 61.70772ZM43.709373 60.942097Q43.115623 61.442097 42.56875 61.64522Q42.0375 61.848347 41.4125 61.848347Q40.38125 61.848347 39.834373 61.348347Q39.2875 60.848347 39.2875 60.067097Q39.2875 59.61397 39.490623 59.23897Q39.69375 58.848347 40.0375 58.629597Q40.38125 58.39522 40.803123 58.285847Q41.1 58.192097 41.740623 58.11397Q43.00625 57.973347 43.615623 57.754597Q43.615623 57.535847 43.615623 57.48897Q43.615623 56.83272 43.31875 56.567097Q42.9125 56.223347 42.115623 56.223347Q41.38125 56.223347 41.021873 56.48897Q40.6625 56.73897 40.490623 57.39522L39.459373 57.254597Q39.6 56.598347 39.928123 56.192097Q40.25625 55.785847 40.865623 55.567097Q41.475 55.348347 42.271873 55.348347Q43.06875 55.348347 43.56875 55.535847Q44.06875 55.723347 44.303123 56.004597Q44.5375 56.285847 44.63125 56.723347Q44.678123 56.98897 44.678123 57.692097L44.678123 59.098347Q44.678123 60.567097 44.740623 60.95772Q44.81875 61.348347 45.021873 61.70772L43.9125 61.70772Q43.75625 61.379597 43.709373 60.942097ZM43.615623 58.58272Q43.0375 58.817097 41.896873 58.98897Q41.240623 59.08272 40.975 59.20772Q40.709373 59.317097 40.553123 59.535847Q40.4125 59.754597 40.4125 60.035847Q40.4125 60.45772 40.725 60.73897Q41.053123 61.02022 41.6625 61.02022Q42.271873 61.02022 42.740623 60.754597Q43.225 60.48897 43.44375 60.02022Q43.615623 59.660847 43.615623 58.973347L43.615623 58.58272ZM46.615623 61.70772L46.615623 53.11397L47.678123 53.11397L47.678123 61.70772L46.615623 61.70772ZM53.896873 59.70772L54.990623 59.83272Q54.740623 60.785847 54.0375 61.317097Q53.334373 61.848347 52.25625 61.848347Q50.896873 61.848347 50.084373 61.004597Q49.2875 60.160847 49.2875 58.64522Q49.2875 57.08272 50.1 56.223347Q50.9125 55.348347 52.19375 55.348347Q53.44375 55.348347 54.225 56.192097Q55.021873 57.035847 55.021873 58.58272Q55.021873 58.67647 55.021873 58.86397L50.38125 58.86397Q50.44375 59.89522 50.959373 60.442097Q51.475 60.973347 52.25625 60.973347Q52.834373 60.973347 53.240623 60.67647Q53.6625 60.36397 53.896873 59.70772ZM50.44375 58.004597L53.9125 58.004597Q53.85 57.20772 53.521873 56.817097Q53.00625 56.20772 52.209373 56.20772Q51.475 56.20772 50.975 56.692097Q50.490623 57.17647 50.44375 58.004597Z" fill-rule="nonzero"/><path fill="#9e9e9e" d="M19.31875 78.70772L18.271875 78.70772L18.271875 71.98897Q17.88125 72.34834 17.25625 72.72334Q16.646875 73.08272 16.1625 73.25459L16.1625 72.23897Q17.0375 71.81709 17.69375 71.23897Q18.365625 70.64522 18.646875 70.08272L19.31875 70.08272L19.31875 78.70772ZM25.725 78.70772L25.725 76.64522L22.00625 76.64522L22.00625 75.67647L25.928125 70.11397L26.7875 70.11397L26.7875 75.67647L27.94375 75.67647L27.94375 76.64522L26.7875 76.64522L26.7875 78.70772L25.725 78.70772ZM25.725 75.67647L25.725 71.81709L23.0375 75.67647L25.725 75.67647ZM29.94375 78.70772L29.94375 77.50459L31.146875 77.50459L31.146875 78.70772L29.94375 78.70772ZM32.4125 71.23897L32.4125 70.22334L37.975 70.22334L37.975 71.05147Q37.1625 71.92647 36.35 73.37959Q35.553123 74.81709 35.115623 76.34834Q34.7875 77.42647 34.709373 78.70772L33.615623 78.70772Q33.63125 77.69209 34.00625 76.25459Q34.396873 74.81709 35.1 73.48897Q35.81875 72.16084 36.63125 71.23897L32.4125 71.23897ZM39.553123 72.17647Q39.553123 71.25459 40.00625 70.61397Q40.475 69.97334 41.35 69.97334Q42.1625 69.97334 42.69375 70.55147Q43.225 71.12959 43.225 72.23897Q43.225 73.33272 42.678123 73.92647Q42.146873 74.50459 41.365623 74.50459Q40.584373 74.50459 40.06875 73.92647Q39.553123 73.34834 39.553123 72.17647ZM41.38125 70.69209Q40.990623 70.69209 40.725 71.03584Q40.475 71.37959 40.475 72.28584Q40.475 73.11397 40.725 73.45772Q40.990623 73.78584 41.38125 73.78584Q41.7875 73.78584 42.0375 73.44209Q42.303123 73.09834 42.303123 72.20772Q42.303123 71.36397 42.0375 71.03584Q41.771873 70.69209 41.38125 70.69209ZM41.38125 79.02022L46.084373 69.97334L46.94375 69.97334L42.25625 79.02022L41.38125 79.02022ZM45.1 76.69209Q45.1 75.77022 45.553123 75.12959Q46.021873 74.48897 46.9125 74.48897Q47.725 74.48897 48.25625 75.06709Q48.7875 75.62959 48.7875 76.75459Q48.7875 77.84834 48.240623 78.44209Q47.709373 79.02022 46.9125 79.02022Q46.146873 79.02022 45.615623 78.44209Q45.1 77.86397 45.1 76.69209ZM46.94375 75.20772Q46.5375 75.20772 46.271873 75.55147Q46.021873 75.89522 46.021873 76.80147Q46.021873 77.61397 46.2875 77.95772Q46.553123 78.30147 46.94375 78.30147Q47.334373 78.30147 47.6 77.95772Q47.865623 77.61397 47.865623 76.70772Q47.865623 75.87959 47.6 75.55147Q47.334373 75.20772 46.94375 75.20772Z" fill-rule="nonzero"/><path stroke="#757575" stroke-width="1.0" stroke-linecap="butt" d="M14.85 66.20772L117.3 66.20772L190.58322 66.20772" fill-rule="nonzero"/><path fill="#9e9e9e" d="M192.58322 66.20772C192.58322 65.10315 191.68779 64.20772 190.58322 64.20772C189.47865 64.20772 188.58322 65.10315 188.58322 66.20772C188.58322 67.312294 189.47865 68.20772 190.58322 68.20772C191.68779 68.20772 192.58322 67.312294 192.58322 66.20772" fill-rule="nonzero"/><path fill="#1a1a1a" d="M439.04062 260.1923L439.04062 251.59854L440.75937 251.59854L442.79062 257.67667Q443.07187 258.53604 443.19687 258.95792Q443.3375 258.48917 443.65 257.58292L445.7125 251.59854L447.24374 251.59854L447.24374 260.1923L446.15 260.1923L446.15 253.00479L443.65 260.1923L442.61874 260.1923L440.13437 252.87979L440.13437 260.1923L439.04062 260.1923ZM453.00937 259.42667Q452.41562 259.92667 451.86874 260.1298Q451.3375 260.33292 450.7125 260.33292Q449.68124 260.33292 449.13437 259.83292Q448.5875 259.33292 448.5875 258.55167Q448.5875 258.09854 448.79062 257.72354Q448.99374 257.33292 449.3375 257.11417Q449.68124 256.8798 450.10312 256.77042Q450.4 256.67667 451.04062 256.59854Q452.30624 256.45792 452.91562 256.23917Q452.91562 256.02042 452.91562 255.97354Q452.91562 255.31729 452.61874 255.05167Q452.2125 254.70792 451.41562 254.70792Q450.68124 254.70792 450.32187 254.97354Q449.9625 255.22354 449.79062 255.87979L448.75937 255.73917Q448.9 255.08292 449.22812 254.67667Q449.55624 254.27042 450.16562 254.05167Q450.775 253.83292 451.57187 253.83292Q452.36874 253.83292 452.86874 254.02042Q453.36874 254.20792 453.60312 254.48917Q453.8375 254.77042 453.93124 255.20792Q453.97812 255.47354 453.97812 256.17667L453.97812 257.58292Q453.97812 259.05167 454.04062 259.4423Q454.11874 259.83292 454.32187 260.1923L453.2125 260.1923Q453.05624 259.86417 453.00937 259.42667ZM452.91562 257.0673Q452.3375 257.30167 451.19687 257.47354Q450.54062 257.5673 450.275 257.6923Q450.00937 257.80167 449.85312 258.02042Q449.7125 258.23917 449.7125 258.52042Q449.7125 258.9423 450.025 259.22354Q450.35312 259.5048 450.9625 259.5048Q451.57187 259.5048 452.04062 259.23917Q452.525 258.97354 452.74374 258.5048Q452.91562 258.14542 452.91562 257.45792L452.91562 257.0673ZM455.91562 260.1923L455.91562 251.59854L456.97812 251.59854L456.97812 260.1923L455.91562 260.1923ZM463.19687 258.1923L464.29062 258.3173Q464.04062 259.27042 463.3375 259.80167Q462.63437 260.33292 461.55624 260.33292Q460.19687 260.33292 459.38437 259.48917Q458.5875 258.64542 458.5875 257.1298Q458.5875 255.56729 459.4 254.70792Q460.2125 253.83292 461.49374 253.83292Q462.74374 253.83292 463.525 254.67667Q464.32187 255.52042 464.32187 257.0673Q464.32187 257.16104 464.32187 257.34854L459.68124 257.34854Q459.74374 258.3798 460.25937 258.92667Q460.775 259.45792 461.55624 259.45792Q462.13437 259.45792 462.54062 259.16104Q462.9625 258.84854 463.19687 258.1923ZM459.74374 256.48917L463.2125 256.48917Q463.15 255.69229 462.82187 255.30167Q462.30624 254.69229 461.50937 254.69229Q460.775 254.69229 460.275 255.17667Q459.79062 255.66104 459.74374 256.48917Z" fill-rule="nonzero"/><path fill="#9e9e9e" d="M432.275 272.53604Q431.61874 272.28604 431.29062 271.84854Q430.97812 271.39542 430.97812 270.78604Q430.97812 269.84854 431.65 269.20792Q432.3375 268.5673 433.44687 268.5673Q434.57187 268.5673 435.25937 269.22354Q435.94687 269.8798 435.94687 270.8173Q435.94687 271.41104 435.63437 271.84854Q435.32187 272.28604 434.68124 272.53604Q435.47812 272.78604 435.88437 273.36417Q436.29062 273.9423 436.29062 274.73917Q436.29062 275.83292 435.50937 276.58292Q434.74374 277.33292 433.4625 277.33292Q432.19687 277.33292 431.41562 276.58292Q430.63437 275.83292 430.63437 274.70792Q430.63437 273.86417 431.05624 273.30167Q431.49374 272.73917 432.275 272.53604ZM432.05624 270.73917Q432.05624 271.34854 432.44687 271.73917Q432.85312 272.1298 433.47812 272.1298Q434.0875 272.1298 434.47812 271.7548Q434.86874 271.36417 434.86874 270.80167Q434.86874 270.22354 434.4625 269.83292Q434.05624 269.42667 433.4625 269.42667Q432.85312 269.42667 432.44687 269.8173Q432.05624 270.20792 432.05624 270.73917ZM431.72812 274.70792Q431.72812 275.16104 431.93124 275.58292Q432.15 276.0048 432.57187 276.23917Q432.99374 276.47354 433.47812 276.47354Q434.22812 276.47354 434.7125 275.98917Q435.2125 275.5048 435.2125 274.7548Q435.2125 273.98917 434.7125 273.48917Q434.2125 272.98917 433.44687 272.98917Q432.69687 272.98917 432.2125 273.48917Q431.72812 273.97354 431.72812 274.70792ZM437.65 274.9423L438.75937 274.84854Q438.88437 275.66104 439.32187 276.0673Q439.775 276.47354 440.41562 276.47354Q441.16562 276.47354 441.69687 275.89542Q442.22812 275.3173 442.22812 274.3798Q442.22812 273.47354 441.7125 272.95792Q441.2125 272.42667 440.38437 272.42667Q439.88437 272.42667 439.4625 272.66104Q439.05624 272.89542 438.82187 273.2548L437.8375 273.1298L438.66562 268.72354L442.94687 268.72354L442.94687 269.72354L439.50937 269.72354L439.05624 272.03604Q439.82187 271.48917 440.66562 271.48917Q441.79062 271.48917 442.55624 272.27042Q443.3375 273.05167 443.3375 274.28604Q443.3375 275.4423 442.66562 276.30167Q441.8375 277.33292 440.41562 277.33292Q439.24374 277.33292 438.49374 276.67667Q437.75937 276.02042 437.65 274.9423ZM445.24374 277.1923L445.24374 275.98917L446.44687 275.98917L446.44687 277.1923L445.24374 277.1923ZM447.65 274.92667L448.7125 274.78604Q448.88437 275.67667 449.32187 276.08292Q449.75937 276.47354 450.38437 276.47354Q451.13437 276.47354 451.65 275.95792Q452.16562 275.4423 452.16562 274.67667Q452.16562 273.95792 451.68124 273.48917Q451.2125 273.0048 450.47812 273.0048Q450.18124 273.0048 449.72812 273.1298L449.85312 272.1923Q449.9625 272.20792 450.025 272.20792Q450.69687 272.20792 451.22812 271.86417Q451.775 271.5048 451.775 270.77042Q451.775 270.1923 451.38437 269.8173Q450.99374 269.42667 450.36874 269.42667Q449.75937 269.42667 449.3375 269.8173Q448.93124 270.20792 448.82187 270.97354L447.75937 270.78604Q447.94687 269.73917 448.63437 269.16104Q449.32187 268.5673 450.3375 268.5673Q451.04062 268.5673 451.63437 268.8798Q452.22812 269.17667 452.54062 269.6923Q452.85312 270.20792 452.85312 270.80167Q452.85312 271.34854 452.55624 271.8173Q452.25937 272.27042 451.68124 272.53604Q452.43124 272.70792 452.85312 273.27042Q453.275 273.8173 453.275 274.66104Q453.275 275.78604 452.44687 276.5673Q451.63437 277.34854 450.38437 277.34854Q449.25937 277.34854 448.50937 276.67667Q447.75937 275.98917 447.65 274.92667ZM454.85312 270.66104Q454.85312 269.73917 455.30624 269.09854Q455.775 268.45792 456.65 268.45792Q457.4625 268.45792 457.99374 269.03604Q458.525 269.61417 458.525 270.72354Q458.525 271.8173 457.97812 272.41104Q457.44687 272.98917 456.66562 272.98917Q455.88437 272.98917 455.36874 272.41104Q454.85312 271.83292 454.85312 270.66104ZM456.68124 269.17667Q456.29062 269.17667 456.025 269.52042Q455.775 269.86417 455.775 270.77042Q455.775 271.59854 456.025 271.9423Q456.29062 272.27042 456.68124 272.27042Q457.0875 272.27042 457.3375 271.92667Q457.60312 271.58292 457.60312 270.6923Q457.60312 269.84854 457.3375 269.52042Q457.07187 269.17667 456.68124 269.17667ZM456.68124 277.5048L461.38437 268.45792L462.24374 268.45792L457.55624 277.5048L456.68124 277.5048ZM460.4 275.17667Q460.4 274.2548 460.85312 273.61417Q461.32187 272.97354 462.2125 272.97354Q463.025 272.97354 463.55624 273.55167Q464.0875 274.11417 464.0875 275.23917Q464.0875 276.33292 463.54062 276.92667Q463.00937 277.5048 462.2125 277.5048Q461.44687 277.5048 460.91562 276.92667Q460.4 276.34854 460.4 275.17667ZM462.24374 273.6923Q461.8375 273.6923 461.57187 274.03604Q461.32187 274.3798 461.32187 275.28604Q461.32187 276.09854 461.5875 276.4423Q461.85312 276.78604 462.24374 276.78604Q462.63437 276.78604 462.9 276.4423Q463.16562 276.09854 463.16562 275.1923Q463.16562 274.36417 462.9 274.03604Q462.63437 273.6923 462.24374 273.6923Z" fill-rule="nonzero"/><path stroke="#757575" stroke-width="1.0" stroke-linecap="butt" d="M465.15 264.6923L362.7 264.6923L289.41678 264.6923" fill-rule="nonzero"/><path fill="#9e9e9e" d="M291.41678 264.6923C291.41678 263.5877 290.52136 262.6923 289.41678 262.6923C288.31223 262.6923 287.41678 263.5877 287.41678 264.6923C287.41678 265.79684 288.31223 266.6923 289.41678 266.6923C290.52136 266.6923 291.41678 265.79684 291.41678 264.6923" fill-rule="nonzero"/><path fill="#757575" d="M16.396875 33.85L16.396875 19.537498L21.31875 19.537498Q22.990625 19.537498 23.88125 19.740623Q25.1 20.021873 25.975 20.756248Q27.1 21.724998 27.6625 23.209373Q28.225 24.693748 28.225 26.615623Q28.225 28.240623 27.85 29.506248Q27.475 30.756248 26.865625 31.584373Q26.271875 32.4125 25.56875 32.896873Q24.865625 33.365623 23.865625 33.615623Q22.865625 33.85 21.553125 33.85L16.396875 33.85ZM18.2875 32.1625L21.35 32.1625Q22.75625 32.1625 23.553125 31.896873Q24.365625 31.631248 24.85 31.146873Q25.521875 30.474998 25.896875 29.349998Q26.271875 28.209373 26.271875 26.584373Q26.271875 24.334373 25.5375 23.131248Q24.803125 21.928123 23.740625 21.521873Q22.990625 21.224998 21.303125 21.224998L18.2875 21.224998L18.2875 32.1625ZM30.178125 21.553123L30.178125 19.537498L31.94375 19.537498L31.94375 21.553123L30.178125 21.553123ZM30.178125 33.85L30.178125 23.474998L31.94375 23.474998L31.94375 33.85L30.178125 33.85ZM34.146873 33.85L34.146873 23.474998L35.725 23.474998L35.725 25.053123Q36.334373 23.943748 36.85 23.599998Q37.365623 23.240623 37.975 23.240623Q38.865623 23.240623 39.7875 23.803123L39.178123 25.443748Q38.5375 25.053123 37.896873 25.053123Q37.31875 25.053123 36.85 25.412498Q36.396873 25.756248 36.19375 26.365623Q35.9125 27.303123 35.9125 28.412498L35.9125 33.85L34.146873 33.85ZM48.271873 30.506248L50.084373 30.740623Q49.6625 32.31875 48.490623 33.209373Q47.334373 34.084373 45.521873 34.084373Q43.25625 34.084373 41.9125 32.69375Q40.584373 31.287498 40.584373 28.756248Q40.584373 26.131248 41.928123 24.693748Q43.271873 23.240623 45.428123 23.240623Q47.50625 23.240623 48.81875 24.662498Q50.146873 26.068748 50.146873 28.646873Q50.146873 28.803123 50.13125 29.115623L42.396873 29.115623Q42.490623 30.818748 43.365623 31.724998Q44.240623 32.63125 45.5375 32.63125Q46.50625 32.63125 47.178123 32.13125Q47.865623 31.615623 48.271873 30.506248ZM42.490623 27.662498L48.2875 27.662498Q48.178123 26.365623 47.63125 25.709373Q46.7875 24.693748 45.44375 24.693748Q44.240623 24.693748 43.4125 25.506248Q42.584373 26.303123 42.490623 27.662498ZM58.94375 30.053123L60.6625 30.271873Q60.38125 32.06875 59.209373 33.084373Q58.053123 34.084373 56.35 34.084373Q54.225 34.084373 52.928123 32.69375Q51.63125 31.303123 51.63125 28.709373Q51.63125 27.021873 52.178123 25.771873Q52.740623 24.506248 53.88125 23.881248Q55.021873 23.240623 56.365623 23.240623Q58.053123 23.240623 59.115623 24.099998Q60.19375 24.959373 60.50625 26.521873L58.7875 26.787498Q58.553123 25.740623 57.928123 25.224998Q57.303123 24.693748 56.428123 24.693748Q55.1 24.693748 54.271873 25.646873Q53.44375 26.599998 53.44375 28.646873Q53.44375 30.740623 54.240623 31.693748Q55.0375 32.63125 56.334373 32.63125Q57.365623 32.63125 58.053123 32.00625Q58.75625 31.365623 58.94375 30.053123ZM66.00625 32.271873L66.25625 33.834373Q65.52187 33.990623 64.92812 33.990623Q63.975 33.990623 63.44375 33.69375Q62.928123 33.38125 62.709373 32.896873Q62.490623 32.396873 62.490623 30.818748L62.490623 24.849998L61.209373 24.849998L61.209373 23.474998L62.490623 23.474998L62.490623 20.912498L64.24062 19.849998L64.24062 23.474998L66.00625 23.474998L66.00625 24.849998L64.24062 24.849998L64.24062 30.912498Q64.24062 31.662498 64.33437 31.881248Q64.42812 32.084373 64.63125 32.225Q64.85 32.35 65.24062 32.35Q65.52187 32.35 66.00625 32.271873ZM72.81875 33.85L78.31875 19.537498L80.36562 19.537498L86.225 33.85L84.06875 33.85L82.39687 29.506248L76.4125 29.506248L74.83437 33.85L72.81875 33.85ZM76.95937 27.974998L81.80312 27.974998L80.31875 24.006248Q79.63125 22.193748 79.30312 21.037498Q79.02187 22.412498 78.52187 23.771873L76.95937 27.974998ZM87.1625 37.81875L87.1625 23.474998L88.77187 23.474998L88.77187 24.818748Q89.33437 24.037498 90.0375 23.646873Q90.75625 23.240623 91.77187 23.240623Q93.1 23.240623 94.11562 23.928123Q95.13125 24.615623 95.64687 25.865623Q96.17812 27.099998 96.17812 28.584373Q96.17812 30.178123 95.6 31.459373Q95.0375 32.725 93.94375 33.4125Q92.85 34.084373 91.64687 34.084373Q90.77187 34.084373 90.06875 33.709373Q89.38125 33.334373 88.92812 32.771873L88.92812 37.81875L87.1625 37.81875ZM88.75625 28.724998Q88.75625 30.724998 89.56875 31.678123Q90.38125 32.63125 91.5375 32.63125Q92.70937 32.63125 93.5375 31.646873Q94.38125 30.662498 94.38125 28.568748Q94.38125 26.599998 93.55312 25.615623Q92.74062 24.615623 91.61562 24.615623Q90.49062 24.615623 89.61562 25.678123Q88.75625 26.724998 88.75625 28.724998ZM98.1625 37.81875L98.1625 23.474998L99.77187 23.474998L99.77187 24.818748Q100.33437 24.037498 101.0375 23.646873Q101.75625 23.240623 102.77187 23.240623Q104.1 23.240623 105.11562 23.928123Q106.13125 24.615623 106.64687 25.865623Q107.17812 27.099998 107.17812 28.584373Q107.17812 30.178123 106.6 31.459373Q106.0375 32.725 104.94375 33.4125Q103.85 34.084373 102.64687 34.084373Q101.77187 34.084373 101.06875 33.709373Q100.38125 33.334373 99.92812 32.771873L99.92812 37.81875L98.1625 37.81875ZM99.75625 28.724998Q99.75625 30.724998 100.56875 31.678123Q101.38125 32.63125 102.5375 32.63125Q103.70937 32.63125 104.5375 31.646873Q105.38125 30.662498 105.38125 28.568748Q105.38125 26.599998 104.55312 25.615623Q103.74062 24.615623 102.61562 24.615623Q101.49062 24.615623 100.61562 25.678123Q99.75625 26.724998 99.75625 28.724998ZM109.13125 33.85L109.13125 19.537498L110.88125 19.537498L110.88125 33.85L109.13125 33.85ZM113.17812 21.553123L113.17812 19.537498L114.94375 19.537498L114.94375 21.553123L113.17812 21.553123ZM113.17812 33.85L113.17812 23.474998L114.94375 23.474998L114.94375 33.85L113.17812 33.85ZM123.94375 30.053123L125.6625 30.271873Q125.38125 32.06875 124.20937 33.084373Q123.05312 34.084373 121.35 34.084373Q119.225 34.084373 117.92812 32.69375Q116.63125 31.303123 116.63125 28.709373Q116.63125 27.021873 117.17812 25.771873Q117.74062 24.506248 118.88125 23.881248Q120.02187 23.240623 121.36562 23.240623Q123.05312 23.240623 124.11562 24.099998Q125.19375 24.959373 125.50625 26.521873L123.7875 26.787498Q123.55312 25.740623 122.92812 25.224998Q122.30312 24.693748 121.42812 24.693748Q120.1 24.693748 119.27187 25.646873Q118.44375 26.599998 118.44375 28.646873Q118.44375 30.740623 119.24062 31.693748Q120.0375 32.63125 121.33437 32.63125Q122.36562 32.63125 123.05312 32.00625Q123.75625 31.365623 123.94375 30.053123ZM133.94376 32.56875Q132.95938 33.396873 132.05313 33.740623Q131.14688 34.084373 130.11563 34.084373Q128.4125 34.084373 127.49062 33.25625Q126.56875 32.4125 126.56875 31.115623Q126.56875 30.349998 126.9125 29.724998Q127.27187 29.099998 127.83437 28.724998Q128.39688 28.334373 129.1 28.131248Q129.61563 28.006248 130.6625 27.865623Q132.7875 27.615623 133.7875 27.271873Q133.80313 26.912498 133.80313 26.803123Q133.80313 25.740623 133.30313 25.287498Q132.63126 24.693748 131.30313 24.693748Q130.05313 24.693748 129.45938 25.131248Q128.88126 25.568748 128.6 26.678123L126.88125 26.443748Q127.11562 25.334373 127.64687 24.662498Q128.17813 23.974998 129.19376 23.615623Q130.20938 23.240623 131.55313 23.240623Q132.88126 23.240623 133.70938 23.553123Q134.5375 23.865623 134.92813 24.349998Q135.31876 24.818748 135.475 25.537498Q135.56876 25.990623 135.56876 27.162498L135.56876 29.506248Q135.56876 31.959373 135.67813 32.615623Q135.7875 33.25625 136.13126 33.85L134.2875 33.85Q134.02188 33.303123 133.94376 32.56875ZM133.7875 28.646873Q132.83438 29.037498 130.9125 29.303123Q129.83438 29.459373 129.38126 29.662498Q128.94376 29.849998 128.69376 30.224998Q128.44376 30.599998 128.44376 31.068748Q128.44376 31.771873 128.975 32.240623Q129.50626 32.709373 130.5375 32.709373Q131.55313 32.709373 132.33438 32.271873Q133.13126 31.818748 133.50626 31.053123Q133.7875 30.443748 133.7875 29.287498L133.7875 28.646873ZM138.1625 33.85L138.1625 23.474998L139.75626 23.474998L139.75626 24.959373Q140.89688 23.240623 143.05313 23.240623Q143.99063 23.240623 144.77188 23.584373Q145.56876 23.912498 145.95938 24.459373Q146.35 25.006248 146.50626 25.756248Q146.6 26.256248 146.6 27.474998L146.6 33.85L144.83438 33.85L144.83438 27.537498Q144.83438 26.459373 144.63126 25.928123Q144.42813 25.396873 143.89688 25.084373Q143.38126 24.771873 142.67813 24.771873Q141.55313 24.771873 140.74063 25.490623Q139.92813 26.193748 139.92813 28.178123L139.92813 33.85L138.1625 33.85ZM153.00626 32.271873L153.25626 33.834373Q152.52188 33.990623 151.92813 33.990623Q150.975 33.990623 150.44376 33.69375Q149.92813 33.38125 149.70938 32.896873Q149.49063 32.396873 149.49063 30.818748L149.49063 24.849998L148.20938 24.849998L148.20938 23.474998L149.49063 23.474998L149.49063 20.912498L151.24063 19.849998L151.24063 23.474998L153.00626 23.474998L153.00626 24.849998L151.24063 24.849998L151.24063 30.912498Q151.24063 31.662498 151.33438 31.881248Q151.42813 32.084373 151.63126 32.225Q151.85 32.35 152.24063 32.35Q152.52188 32.35 153.00626 32.271873ZM154.45938 30.756248L156.20938 30.474998Q156.35 31.521873 157.02188 32.084373Q157.69376 32.63125 158.89688 32.63125Q160.1 32.63125 160.67813 32.146873Q161.27188 31.646873 161.27188 30.990623Q161.27188 30.396873 160.75626 30.053123Q160.39688 29.818748 158.95938 29.459373Q157.02188 28.959373 156.27188 28.615623Q155.5375 28.256248 155.14688 27.631248Q154.75626 26.990623 154.75626 26.224998Q154.75626 25.537498 155.06876 24.943748Q155.39688 24.349998 155.94376 23.959373Q156.35 23.662498 157.05313 23.459373Q157.77188 23.240623 158.58438 23.240623Q159.80313 23.240623 160.725 23.599998Q161.64688 23.943748 162.08438 24.553123Q162.52188 25.146873 162.69376 26.146873L160.975 26.381248Q160.85 25.584373 160.2875 25.146873Q159.725 24.693748 158.70938 24.693748Q157.49063 24.693748 156.975 25.099998Q156.45938 25.490623 156.45938 26.021873Q156.45938 26.365623 156.67813 26.646873Q156.88126 26.928123 157.35 27.115623Q157.61563 27.209373 158.89688 27.553123Q160.77188 28.053123 161.50626 28.381248Q162.24063 28.693748 162.6625 29.303123Q163.08438 29.896873 163.08438 30.803123Q163.08438 31.678123 162.56876 32.459373Q162.05313 33.240623 161.08438 33.6625Q160.11563 34.084373 158.89688 34.084373Q156.88126 34.084373 155.81876 33.240623Q154.75626 32.396873 154.45938 30.756248Z" fill-rule="nonzero"/></svg>