<svg version="1.1" viewBox="0.0 0.0 480.0 297.0" fill="none" stroke="none" stroke-linecap="square" stroke-miterlimit="10" width="480" height="297" xmlns:xlink="http://www.w3.org/1999/xlink" xmlns="http://www.w3.org/2000/svg"><path fill="#ffffff" d="M0 0L480.0 0L480.0 297.0L0 297.0L0 0Z" fill-rule="nonzero"/><path stroke="#333333" stroke-width="1.0" stroke-linecap="butt" d="M102.5 48.5L102.5 230.5" fill-rule="nonzero"/><path stroke="#cccccc" stroke-width="1.0" stroke-linecap="butt" d="M223.5 48.5L223.5 230.5" fill-rule="nonzero"/><path stroke="#cccccc" stroke-width="1.0" stroke-linecap="butt" d="M344.5 48.5L344.5 230.5" fill-rule="nonzero"/><path stroke="#cccccc" stroke-width="1.0" stroke-linecap="butt" d="M465.5 48.5L465.5 230.5" fill-rule="nonzero"/><clipPath id="id_0"><path d="M102.85 48.75L465.15 48.75L465.15 230.15L102.85 230.15L102.85 48.75Z" clip-rule="nonzero"/></clipPath><path stroke="#000000" stroke-width="2.0" stroke-linecap="butt" stroke-opacity="0.0" clip-path="url(#id_0)" d="M103.0 73.0L103.0 57.0L427.0 57.0C428.10458 57.0 429.0 57.89543 429.0 59.0L429.0 71.0C429.0 72.10457 428.10458 73.0 427.0 73.0Z" fill-rule="nonzero"/><path fill="#4285f4" clip-path="url(#id_0)" d="M103.0 73.0L103.0 57.0L427.0 57.0C428.10458 57.0 429.0 57.89543 429.0 59.0L429.0 71.0C429.0 72.10457 428.10458 73.0 427.0 73.0Z" fill-rule="nonzero"/><path stroke="#000000" stroke-width="2.0" stroke-linecap="butt" stroke-opacity="0.0" clip-path="url(#id_0)" d="M103.0 98.0L103.0 82.0L113.0 82.0C114.10457 82.0 115.0 82.89543 115.0 84.0L115.0 96.0C115.0 97.10457 114.10457 98.0 113.0 98.0Z" fill-rule="nonzero"/><path fill="#4285f4" clip-path="url(#id_0)" d="M103.0 98.0L103.0 82.0L113.0 82.0C114.10457 82.0 115.0 82.89543 115.0 84.0L115.0 96.0C115.0 97.10457 114.10457 98.0 113.0 98.0Z" fill-rule="nonzero"/><path stroke="#000000" stroke-width="2.0" stroke-linecap="butt" stroke-opacity="0.0" clip-path="url(#id_0)" d="M103.0 123.0L103.0 107.0L113.0 107.0C114.10457 107.0 115.0 107.89543 115.0 109.0L115.0 121.0C115.0 122.10457 114.10457 123.0 113.0 123.0Z" fill-rule="nonzero"/><path fill="#4285f4" clip-path="url(#id_0)" d="M103.0 123.0L103.0 107.0L113.0 107.0C114.10457 107.0 115.0 107.89543 115.0 109.0L115.0 121.0C115.0 122.10457 114.10457 123.0 113.0 123.0Z" fill-rule="nonzero"/><path stroke="#000000" stroke-width="2.0" stroke-linecap="butt" stroke-opacity="0.0" clip-path="url(#id_0)" d="M103.0 147.0L103.0 131.0L113.0 131.0C114.10457 131.0 115.0 131.89543 115.0 133.0L115.0 145.0C115.0 146.10457 114.10457 147.0 113.0 147.0Z" fill-rule="nonzero"/><path fill="#4285f4" clip-path="url(#id_0)" d="M103.0 147.0L103.0 131.0L113.0 131.0C114.10457 131.0 115.0 131.89543 115.0 133.0L115.0 145.0C115.0 146.10457 114.10457 147.0 113.0 147.0Z" fill-rule="nonzero"/><path stroke="#000000" stroke-width="2.0" stroke-linecap="butt" stroke-opacity="0.0" clip-path="url(#id_0)" d="M103.0 172.0L103.0 156.0L113.0 156.0C114.10457 156.0 115.0 156.89543 115.0 158.0L115.0 170.0C115.0 171.10457 114.10457 172.0 113.0 172.0Z" fill-rule="nonzero"/><path fill="#4285f4" clip-path="url(#id_0)" d="M103.0 172.0L103.0 156.0L113.0 156.0C114.10457 156.0 115.0 156.89543 115.0 158.0L115.0 170.0C115.0 171.10457 114.10457 172.0 113.0 172.0Z" fill-rule="nonzero"/><path stroke="#000000" stroke-width="2.0" stroke-linecap="butt" stroke-opacity="0.0" clip-path="url(#id_0)" d="M103.0 197.0L103.0 181.0L113.0 181.0C114.10457 181.0 115.0 181.89543 115.0 183.0L115.0 195.0C115.0 196.10457 114.10457 197.0 113.0 197.0Z" fill-rule="nonzero"/><path fill="#4285f4" clip-path="url(#id_0)" d="M103.0 197.0L103.0 181.0L113.0 181.0C114.10457 181.0 115.0 181.89543 115.0 183.0L115.0 195.0C115.0 196.10457 114.10457 197.0 113.0 197.0Z" fill-rule="nonzero"/><path stroke="#000000" stroke-width="2.0" stroke-linecap="butt" stroke-opacity="0.0" clip-path="url(#id_0)" d="M103.0 221.0L103.0 205.0L113.0 205.0C114.10457 205.0 115.0 205.89543 115.0 207.0L115.0 219.0C115.0 220.10457 114.10457 221.0 113.0 221.0Z" fill-rule="nonzero"/><path fill="#4285f4" clip-path="url(#id_0)" d="M103.0 221.0L103.0 205.0L113.0 205.0C114.10457 205.0 115.0 205.89543 115.0 207.0L115.0 219.0C115.0 220.10457 114.10457 221.0 113.0 221.0Z" fill-rule="nonzero"/><path fill="#000000" d="M255.48438 279.15L258.78125 270.55624L260.0 270.55624L263.51562 279.15L262.23438 279.15L261.21875 276.54062L257.64062 276.54062L256.6875 279.15L255.48438 279.15ZM257.96875 275.61874L260.875 275.61874L259.98438 273.24374Q259.5625 272.16562 259.375 271.4625Q259.20312 272.29062 258.90625 273.10312L257.96875 275.61874ZM264.29688 281.54062L264.29688 272.93124L265.25 272.93124L265.25 273.72812Q265.59375 273.25937 266.01562 273.025Q266.45312 272.79062 267.0625 272.79062Q267.85938 272.79062 268.46875 273.19687Q269.07812 273.60312 269.375 274.35312Q269.6875 275.10312 269.6875 275.99374Q269.6875 276.94687 269.34375 277.7125Q269.01562 278.47812 268.35938 278.88437Q267.70312 279.29062 266.98438 279.29062Q266.45312 279.29062 266.03125 279.07187Q265.60938 278.8375 265.34375 278.50937L265.34375 281.54062L264.29688 281.54062ZM265.25 276.07187Q265.25 277.275 265.73438 277.85312Q266.21875 278.41562 266.90625 278.41562Q267.60938 278.41562 268.10938 277.82187Q268.60938 277.22812 268.60938 275.97812Q268.60938 274.79062 268.125 274.2125Q267.64062 273.61874 266.95312 273.61874Q266.28125 273.61874 265.76562 274.24374Q265.25 274.86874 265.25 276.07187ZM271.29688 281.54062L271.29688 272.93124L272.25 272.93124L272.25 273.72812Q272.59375 273.25937 273.01562 273.025Q273.45312 272.79062 274.0625 272.79062Q274.85938 272.79062 275.46875 273.19687Q276.07812 273.60312 276.375 274.35312Q276.6875 275.10312 276.6875 275.99374Q276.6875 276.94687 276.34375 277.7125Q276.01562 278.47812 275.35938 278.88437Q274.70312 279.29062 273.98438 279.29062Q273.45312 279.29062 273.03125 279.07187Q272.60938 278.8375 272.34375 278.50937L272.34375 281.54062L271.29688 281.54062ZM272.25 276.07187Q272.25 277.275 272.73438 277.85312Q273.21875 278.41562 273.90625 278.41562Q274.60938 278.41562 275.10938 277.82187Q275.60938 277.22812 275.60938 275.97812Q275.60938 274.79062 275.125 274.2125Q274.64062 273.61874 273.95312 273.61874Q273.28125 273.61874 272.76562 274.24374Q272.25 274.86874 272.25 276.07187ZM278.26562 279.15L278.26562 270.55624L279.32812 270.55624L279.32812 279.15L278.26562 279.15ZM281.29688 271.775L281.29688 270.55624L282.35938 270.55624L282.35938 271.775L281.29688 271.775ZM281.29688 279.15L281.29688 272.93124L282.35938 272.93124L282.35938 279.15L281.29688 279.15ZM288.35938 276.86874L289.39062 277.00937Q289.21875 278.07187 288.51562 278.68124Q287.8125 279.29062 286.79688 279.29062Q285.51562 279.29062 284.73438 278.4625Q283.96875 277.61874 283.96875 276.05624Q283.96875 275.05624 284.29688 274.30624Q284.64062 273.54062 285.3125 273.16562Q286.0 272.79062 286.8125 272.79062Q287.8125 272.79062 288.45312 273.30624Q289.10938 273.80624 289.29688 274.75937L288.26562 274.91562Q288.125 274.29062 287.75 273.97812Q287.375 273.65 286.84375 273.65Q286.04688 273.65 285.54688 274.22812Q285.04688 274.79062 285.04688 276.025Q285.04688 277.29062 285.53125 277.85312Q286.01562 278.41562 286.78125 278.41562Q287.40625 278.41562 287.8125 278.04062Q288.23438 277.66562 288.35938 276.86874ZM294.35938 278.38437Q293.76562 278.88437 293.21875 279.0875Q292.6875 279.29062 292.0625 279.29062Q291.03125 279.29062 290.48438 278.79062Q289.9375 278.29062 289.9375 277.50937Q289.9375 277.05624 290.14062 276.68124Q290.34375 276.29062 290.6875 276.07187Q291.03125 275.8375 291.45312 275.72812Q291.75 275.63437 292.39062 275.55624Q293.65625 275.41562 294.26562 275.19687Q294.26562 274.97812 294.26562 274.93124Q294.26562 274.275 293.96875 274.00937Q293.5625 273.66562 292.76562 273.66562Q292.03125 273.66562 291.67188 273.93124Q291.3125 274.18124 291.14062 274.8375L290.10938 274.69687Q290.25 274.04062 290.57812 273.63437Q290.90625 273.22812 291.51562 273.00937Q292.125 272.79062 292.92188 272.79062Q293.71875 272.79062 294.21875 272.97812Q294.71875 273.16562 294.95312 273.44687Q295.1875 273.72812 295.28125 274.16562Q295.32812 274.43124 295.32812 275.13437L295.32812 276.54062Q295.32812 278.00937 295.39062 278.4Q295.46875 278.79062 295.67188 279.15L294.5625 279.15Q294.40625 278.82187 294.35938 278.38437ZM294.26562 276.025Q293.6875 276.25937 292.54688 276.43124Q291.89062 276.525 291.625 276.65Q291.35938 276.75937 291.20312 276.97812Q291.0625 277.19687 291.0625 277.47812Q291.0625 277.9 291.375 278.18124Q291.70312 278.4625 292.3125 278.4625Q292.92188 278.4625 293.39062 278.19687Q293.875 277.93124 294.09375 277.4625Q294.26562 277.10312 294.26562 276.41562L294.26562 276.025ZM297.29688 279.15L297.29688 272.93124L298.23438 272.93124L298.23438 273.80624Q298.92188 272.79062 300.21875 272.79062Q300.78125 272.79062 301.25 272.99374Q301.73438 273.19687 301.96875 273.525Q302.20312 273.85312 302.29688 274.29062Q302.34375 274.5875 302.34375 275.32187L302.34375 279.15L301.29688 279.15L301.29688 275.36874Q301.29688 274.7125 301.17188 274.4Q301.04688 274.0875 300.73438 273.9Q300.42188 273.69687 300.0 273.69687Q299.32812 273.69687 298.82812 274.13437Q298.34375 274.55624 298.34375 275.74374L298.34375 279.15L297.29688 279.15ZM306.59375 278.2125L306.75 279.13437Q306.29688 279.22812 305.95312 279.22812Q305.375 279.22812 305.0625 279.05624Q304.75 278.86874 304.60938 278.57187Q304.48438 278.275 304.48438 277.32187L304.48438 273.74374L303.71875 273.74374L303.71875 272.93124L304.48438 272.93124L304.48438 271.38437L305.53125 270.75937L305.53125 272.93124L306.59375 272.93124L306.59375 273.74374L305.53125 273.74374L305.53125 277.38437Q305.53125 277.8375 305.57812 277.9625Q305.64062 278.0875 305.76562 278.16562Q305.89062 278.24374 306.125 278.24374Q306.3125 278.24374 306.59375 278.2125ZM306.875 277.29062L307.90625 277.13437Q308.0 277.75937 308.39062 278.0875Q308.79688 278.41562 309.53125 278.41562Q310.25 278.41562 310.59375 278.13437Q310.95312 277.8375 310.95312 277.43124Q310.95312 277.07187 310.64062 276.86874Q310.42188 276.72812 309.5625 276.50937Q308.40625 276.2125 307.95312 276.00937Q307.51562 275.79062 307.28125 275.41562Q307.04688 275.04062 307.04688 274.57187Q307.04688 274.16562 307.23438 273.80624Q307.42188 273.44687 307.75 273.2125Q308.0 273.04062 308.42188 272.91562Q308.84375 272.79062 309.34375 272.79062Q310.0625 272.79062 310.60938 273.00937Q311.17188 273.2125 311.4375 273.57187Q311.70312 273.93124 311.79688 274.525L310.76562 274.66562Q310.70312 274.19687 310.35938 273.93124Q310.03125 273.65 309.40625 273.65Q308.6875 273.65 308.375 273.9Q308.0625 274.13437 308.0625 274.4625Q308.0625 274.66562 308.1875 274.82187Q308.32812 274.99374 308.59375 275.10312Q308.75 275.16562 309.53125 275.36874Q310.65625 275.68124 311.09375 275.86874Q311.53125 276.05624 311.78125 276.41562Q312.03125 276.775 312.03125 277.32187Q312.03125 277.85312 311.71875 278.32187Q311.42188 278.775 310.84375 279.04062Q310.26562 279.29062 309.53125 279.29062Q308.3125 279.29062 307.67188 278.79062Q307.04688 278.275 306.875 277.29062Z" fill-rule="nonzero"/><path fill="#000000" d="M22.83437 163.8875L23.131245 162.7625Q24.52187 163.12187 25.256245 164.04375Q25.99062 164.96562 25.99062 166.30937Q25.99062 167.7 25.42812 168.575Q24.86562 169.45 23.80312 169.90312Q22.724995 170.35625 21.49062 170.35625Q20.14687 170.35625 19.14687 169.84062Q18.14687 169.325 17.631245 168.3875Q17.11562 167.43437 17.11562 166.29375Q17.11562 165.0125 17.77187 164.1375Q18.42812 163.24687 19.61562 162.90312L19.881245 164.02812Q18.943745 164.325 18.52187 164.90312Q18.08437 165.46562 18.08437 166.325Q18.08437 167.30937 18.568745 167.98125Q19.037495 168.6375 19.83437 168.91875Q20.631245 169.18437 21.49062 169.18437Q22.58437 169.18437 23.39687 168.87187Q24.20937 168.54375 24.61562 167.87187Q25.02187 167.2 25.02187 166.40312Q25.02187 165.45 24.474995 164.79375Q23.92812 164.12187 22.83437 163.8875ZM22.74062 161.54375Q21.006245 161.54375 20.17812 160.59062Q19.49062 159.79375 19.49062 158.6375Q19.49062 157.35625 20.33437 156.54375Q21.162495 155.71562 22.64687 155.71562Q23.849995 155.71562 24.537495 156.075Q25.224995 156.43437 25.61562 157.1375Q25.99062 157.825 25.99062 158.6375Q25.99062 159.93437 25.162495 160.74687Q24.318745 161.54375 22.74062 161.54375ZM22.74062 160.46562Q23.92812 160.46562 24.52187 159.95Q25.11562 159.41875 25.11562 158.6375Q25.11562 157.84062 24.52187 157.325Q23.92812 156.80937 22.70937 156.80937Q21.55312 156.80937 20.95937 157.34062Q20.36562 157.85625 20.36562 158.6375Q20.36562 159.41875 20.95937 159.95Q21.537495 160.46562 22.74062 160.46562ZM25.849995 150.075L24.92812 150.075Q25.99062 150.80937 25.99062 152.05937Q25.99062 152.60625 25.787495 153.09062Q25.568745 153.55937 25.256245 153.79375Q24.92812 154.02812 24.45937 154.12187Q24.162495 154.18437 23.474995 154.18437L19.631245 154.18437L19.631245 153.12187L23.08437 153.12187Q23.89687 153.12187 24.193745 153.05937Q24.599995 152.96562 24.849995 152.65312Q25.08437 152.325 25.08437 151.84062Q25.08437 151.37187 24.849995 150.96562Q24.599995 150.54375 24.17812 150.37187Q23.756245 150.18437 22.95937 150.18437L19.631245 150.18437L19.631245 149.1375L25.849995 149.1375L25.849995 150.075ZM25.849995 147.15312L19.631245 147.15312L19.631245 146.21562L20.506245 146.21562Q19.49062 145.52812 19.49062 144.23125Q19.49062 143.66875 19.693745 143.2Q19.89687 142.71562 20.224995 142.48125Q20.55312 142.24687 20.99062 142.15312Q21.287495 142.10625 22.02187 142.10625L25.849995 142.10625L25.849995 143.15312L22.068745 143.15312Q21.412495 143.15312 21.099995 143.27812Q20.787495 143.40312 20.599995 143.71562Q20.39687 144.02812 20.39687 144.45Q20.39687 145.12187 20.83437 145.62187Q21.256245 146.10625 22.443745 146.10625L25.849995 146.10625L25.849995 147.15312ZM24.912495 137.85625L25.83437 137.7Q25.92812 138.15312 25.92812 138.49687Q25.92812 139.075 25.756245 139.3875Q25.568745 139.7 25.27187 139.84062Q24.974995 139.96562 24.02187 139.96562L20.443745 139.96562L20.443745 140.73125L19.631245 140.73125L19.631245 139.96562L18.08437 139.96562L17.45937 138.91875L19.631245 138.91875L19.631245 137.85625L20.443745 137.85625L20.443745 138.91875L24.08437 138.91875Q24.537495 138.91875 24.662495 138.87187Q24.787495 138.80937 24.86562 138.68437Q24.943745 138.55937 24.943745 138.325Q24.943745 138.1375 24.912495 137.85625ZM25.849995 137.16875L19.631245 137.16875L19.631245 136.21562L20.568745 136.21562Q19.912495 135.85625 19.70937 135.55937Q19.49062 135.24687 19.49062 134.87187Q19.49062 134.34062 19.818745 133.79375L20.80312 134.15312Q20.568745 134.54375 20.568745 134.91875Q20.568745 135.27812 20.787495 135.55937Q20.99062 135.825 21.36562 135.93437Q21.92812 136.12187 22.58437 136.12187L25.849995 136.12187L25.849995 137.16875ZM28.24062 133.2L27.256245 133.325Q27.349995 132.98125 27.349995 132.71562Q27.349995 132.37187 27.224995 132.16875Q27.11562 131.95 26.912495 131.80937Q26.74062 131.71562 26.11562 131.48125Q26.037495 131.46562 25.86562 131.3875L19.631245 133.7625L19.631245 132.62187L23.224995 131.325Q23.912495 131.075 24.67812 130.87187Q23.943745 130.68437 23.256245 130.43437L19.631245 129.10625L19.631245 128.05937L25.95937 130.41875Q26.974995 130.80937 27.36562 131.0125Q27.89687 131.29375 28.131245 131.66875Q28.381245 132.02812 28.381245 132.52812Q28.381245 132.825 28.24062 133.2Z" fill-rule="nonzero"/><path fill="#000000" d="M86.4125 60.815437L87.55312 60.815437L87.55312 65.78419Q87.55312 67.08106 87.25625 67.84669Q86.95937 68.59669 86.19375 69.08106Q85.42812 69.54981 84.19375 69.54981Q82.99062 69.54981 82.20937 69.14356Q81.44375 68.72169 81.11562 67.94044Q80.7875 67.14356 80.7875 65.78419L80.7875 60.815437L81.92812 60.815437L81.92812 65.76856Q81.92812 66.89356 82.13125 67.42481Q82.35 67.95606 82.85 68.25294Q83.36562 68.53419 84.1 68.53419Q85.35 68.53419 85.88125 67.97169Q86.4125 67.39356 86.4125 65.76856L86.4125 60.815437ZM89.39687 66.64356L90.45937 66.54981Q90.5375 67.20606 90.81875 67.61231Q91.1 68.01856 91.67812 68.28419Q92.27187 68.53419 93.00625 68.53419Q93.64687 68.53419 94.14687 68.34669Q94.64687 68.14356 94.88125 67.81544Q95.13125 67.47169 95.13125 67.08106Q95.13125 66.67481 94.89687 66.37794Q94.6625 66.06544 94.13125 65.86231Q93.77187 65.72169 92.58437 65.44044Q91.4125 65.15919 90.94375 64.90919Q90.31875 64.58106 90.02187 64.11231Q89.725 63.627937 89.725 63.034187Q89.725 62.393562 90.08437 61.831062Q90.45937 61.252937 91.1625 60.971687Q91.88125 60.674812 92.74062 60.674812Q93.69375 60.674812 94.42812 60.987312Q95.1625 61.284187 95.55312 61.893562Q95.94375 62.487312 95.975 63.237312L94.88125 63.315437Q94.7875 62.502937 94.27187 62.096687Q93.77187 61.674812 92.7875 61.674812Q91.75625 61.674812 91.2875 62.049812Q90.81875 62.424812 90.81875 62.956062Q90.81875 63.424812 91.14687 63.721687Q91.475 64.01856 92.85 64.33106Q94.24062 64.64356 94.75625 64.87794Q95.50625 65.23731 95.86562 65.76856Q96.225 66.28419 96.225 66.98731Q96.225 67.67481 95.83437 68.28419Q95.44375 68.87794 94.70937 69.22169Q93.975 69.54981 93.05312 69.54981Q91.88125 69.54981 91.08437 69.22169Q90.30312 68.87794 89.85 68.19044Q89.4125 67.50294 89.39687 66.64356Z" fill-rule="nonzero"/><path fill="#000000" d="M57.834373 94.089455L61.13125 85.495705L62.35 85.495705L65.86562 94.089455L64.58437 94.089455L63.56875 91.48008L59.990623 91.48008L59.0375 94.089455L57.834373 94.089455ZM60.31875 90.558205L63.225 90.558205L62.334373 88.183205Q61.9125 87.10508 61.725 86.401955Q61.553123 87.23008 61.25625 88.04258L60.31875 90.558205ZM66.61562 94.089455L66.61562 85.495705L67.67812 85.495705L67.67812 94.089455L66.61562 94.089455ZM69.44375 94.60508L70.475 94.76133Q70.5375 95.23008 70.83437 95.44883Q71.225 95.745705 71.89687 95.745705Q72.63125 95.745705 73.02187 95.44883Q73.42812 95.151955 73.56875 94.63633Q73.6625 94.308205 73.64687 93.276955Q72.95937 94.089455 71.92812 94.089455Q70.64687 94.089455 69.94375 93.16758Q69.24062 92.23008 69.24062 90.94883Q69.24062 90.058205 69.55312 89.308205Q69.88125 88.54258 70.49062 88.13633Q71.1 87.73008 71.92812 87.73008Q73.0375 87.73008 73.75625 88.620705L73.75625 87.870705L74.725 87.870705L74.725 93.245705Q74.725 94.69883 74.42812 95.308205Q74.13125 95.91758 73.49062 96.26133Q72.85 96.620705 71.9125 96.620705Q70.80312 96.620705 70.11562 96.120705Q69.42812 95.620705 69.44375 94.60508ZM70.31875 90.870705Q70.31875 92.089455 70.80312 92.651955Q71.2875 93.214455 72.02187 93.214455Q72.75625 93.214455 73.24062 92.651955Q73.74062 92.089455 73.74062 90.901955Q73.74062 89.76133 73.225 89.183205Q72.725 88.60508 72.00625 88.60508Q71.30312 88.60508 70.80312 89.183205Q70.31875 89.745705 70.31875 90.870705ZM80.89687 92.089455L81.99062 92.214455Q81.74062 93.16758 81.0375 93.69883Q80.33437 94.23008 79.25625 94.23008Q77.89687 94.23008 77.08437 93.38633Q76.2875 92.54258 76.2875 91.026955Q76.2875 89.464455 77.1 88.60508Q77.9125 87.73008 79.19375 87.73008Q80.44375 87.73008 81.225 88.57383Q82.02187 89.41758 82.02187 90.964455Q82.02187 91.058205 82.02187 91.245705L77.38125 91.245705Q77.44375 92.276955 77.95937 92.82383Q78.475 93.35508 79.25625 93.35508Q79.83437 93.35508 80.24062 93.058205Q80.6625 92.745705 80.89687 92.089455ZM77.44375 90.38633L80.9125 90.38633Q80.85 89.589455 80.52187 89.19883Q80.00625 88.589455 79.20937 88.589455Q78.475 88.589455 77.975 89.07383Q77.49062 89.558205 77.44375 90.38633ZM83.63125 94.089455L83.63125 87.870705L84.58437 87.870705L84.58437 88.808205Q84.94375 88.151955 85.24062 87.94883Q85.55312 87.73008 85.92812 87.73008Q86.45937 87.73008 87.00625 88.058205L86.64687 89.04258Q86.25625 88.808205 85.88125 88.808205Q85.52187 88.808205 85.24062 89.026955Q84.975 89.23008 84.86562 89.60508Q84.67812 90.16758 84.67812 90.82383L84.67812 94.089455L83.63125 94.089455ZM87.64687 86.714455L87.64687 85.495705L88.70937 85.495705L88.70937 86.714455L87.64687 86.714455ZM87.64687 94.089455L87.64687 87.870705L88.70937 87.870705L88.70937 94.089455L87.64687 94.089455ZM94.70937 93.32383Q94.11562 93.82383 93.56875 94.026955Q93.0375 94.23008 92.4125 94.23008Q91.38125 94.23008 90.83437 93.73008Q90.2875 93.23008 90.2875 92.44883Q90.2875 91.995705 90.49062 91.620705Q90.69375 91.23008 91.0375 91.01133Q91.38125 90.776955 91.80312 90.66758Q92.1 90.57383 92.74062 90.495705Q94.00625 90.35508 94.61562 90.13633Q94.61562 89.91758 94.61562 89.870705Q94.61562 89.214455 94.31875 88.94883Q93.9125 88.60508 93.11562 88.60508Q92.38125 88.60508 92.02187 88.870705Q91.6625 89.120705 91.49062 89.776955L90.45937 89.63633Q90.6 88.98008 90.92812 88.57383Q91.25625 88.16758 91.86562 87.94883Q92.475 87.73008 93.27187 87.73008Q94.06875 87.73008 94.56875 87.91758Q95.06875 88.10508 95.30312 88.38633Q95.5375 88.66758 95.63125 89.10508Q95.67812 89.370705 95.67812 90.07383L95.67812 91.48008Q95.67812 92.94883 95.74062 93.339455Q95.81875 93.73008 96.02187 94.089455L94.9125 94.089455Q94.75625 93.76133 94.70937 93.32383ZM94.61562 90.964455Q94.0375 91.19883 92.89687 91.370705Q92.24062 91.464455 91.975 91.589455Q91.70937 91.69883 91.55312 91.91758Q91.4125 92.13633 91.4125 92.41758Q91.4125 92.839455 91.725 93.120705Q92.05312 93.401955 92.6625 93.401955Q93.27187 93.401955 93.74062 93.13633Q94.225 92.870705 94.44375 92.401955Q94.61562 92.04258 94.61562 91.35508L94.61562 90.964455Z" fill-rule="nonzero"/><path fill="#000000" d="M70.975 118.76973L70.975 110.17598L72.1 110.17598L72.1 118.76973L70.975 118.76973ZM73.64687 118.76973L73.64687 112.55098L74.58437 112.55098L74.58437 113.42598Q75.27187 112.410355 76.56875 112.410355Q77.13125 112.410355 77.6 112.61348Q78.08437 112.816605 78.31875 113.14473Q78.55312 113.472855 78.64687 113.910355Q78.69375 114.20723 78.69375 114.941605L78.69375 118.76973L77.64687 118.76973L77.64687 114.98848Q77.64687 114.33223 77.52187 114.01973Q77.39687 113.70723 77.08437 113.51973Q76.77187 113.316605 76.35 113.316605Q75.67812 113.316605 75.17812 113.754105Q74.69375 114.17598 74.69375 115.36348L74.69375 118.76973L73.64687 118.76973ZM84.67812 118.76973L84.67812 117.98848Q84.08437 118.910355 82.94375 118.910355Q82.19375 118.910355 81.56875 118.504105Q80.94375 118.08223 80.6 117.347855Q80.25625 116.61348 80.25625 115.660355Q80.25625 114.73848 80.56875 113.972855Q80.88125 113.20723 81.50625 112.816605Q82.13125 112.410355 82.89687 112.410355Q83.45937 112.410355 83.89687 112.64473Q84.33437 112.879105 84.61562 113.254105L84.61562 110.17598L85.6625 110.17598L85.6625 118.76973L84.67812 118.76973ZM81.35 115.660355Q81.35 116.86348 81.85 117.45723Q82.35 118.035355 83.0375 118.035355Q83.725 118.035355 84.20937 117.472855Q84.69375 116.910355 84.69375 115.754105Q84.69375 114.472855 84.19375 113.879105Q83.70937 113.285355 82.99062 113.285355Q82.2875 113.285355 81.81875 113.86348Q81.35 114.42598 81.35 115.660355ZM87.64687 111.39473L87.64687 110.17598L88.70937 110.17598L88.70937 111.39473L87.64687 111.39473ZM87.64687 118.76973L87.64687 112.55098L88.70937 112.55098L88.70937 118.76973L87.64687 118.76973ZM94.70937 118.004105Q94.11562 118.504105 93.56875 118.70723Q93.0375 118.910355 92.4125 118.910355Q91.38125 118.910355 90.83437 118.410355Q90.2875 117.910355 90.2875 117.129105Q90.2875 116.67598 90.49062 116.30098Q90.69375 115.910355 91.0375 115.691605Q91.38125 115.45723 91.80312 115.347855Q92.1 115.254105 92.74062 115.17598Q94.00625 115.035355 94.61562 114.816605Q94.61562 114.597855 94.61562 114.55098Q94.61562 113.89473 94.31875 113.629105Q93.9125 113.285355 93.11562 113.285355Q92.38125 113.285355 92.02187 113.55098Q91.6625 113.80098 91.49062 114.45723L90.45937 114.316605Q90.6 113.660355 90.92812 113.254105Q91.25625 112.847855 91.86562 112.629105Q92.475 112.410355 93.27187 112.410355Q94.06875 112.410355 94.56875 112.597855Q95.06875 112.785355 95.30312 113.066605Q95.5375 113.347855 95.63125 113.785355Q95.67812 114.05098 95.67812 114.754105L95.67812 116.160355Q95.67812 117.629105 95.74062 118.01973Q95.81875 118.410355 96.02187 118.76973L94.9125 118.76973Q94.75625 118.441605 94.70937 118.004105ZM94.61562 115.64473Q94.0375 115.879105 92.89687 116.05098Q92.24062 116.14473 91.975 116.26973Q91.70937 116.379105 91.55312 116.597855Q91.4125 116.816605 91.4125 117.097855Q91.4125 117.51973 91.725 117.80098Q92.05312 118.08223 92.6625 118.08223Q93.27187 118.08223 93.74062 117.816605Q94.225 117.55098 94.44375 117.08223Q94.61562 116.722855 94.61562 116.035355L94.61562 115.64473Z" fill-rule="nonzero"/><path fill="#000000" d="M57.771873 143.45L57.771873 134.85625L58.928123 134.85625L63.44375 141.60625L63.44375 134.85625L64.5375 134.85625L64.5375 143.45L63.365623 143.45L58.85 136.7L58.85 143.45L57.771873 143.45ZM66.64687 136.075L66.64687 134.85625L67.70937 134.85625L67.70937 136.075L66.64687 136.075ZM66.64687 143.45L66.64687 137.23125L67.70937 137.23125L67.70937 143.45L66.64687 143.45ZM69.44375 143.96562L70.475 144.12187Q70.5375 144.59062 70.83437 144.80937Q71.225 145.10625 71.89687 145.10625Q72.63125 145.10625 73.02187 144.80937Q73.42812 144.5125 73.56875 143.99687Q73.6625 143.66875 73.64687 142.6375Q72.95937 143.45 71.92812 143.45Q70.64687 143.45 69.94375 142.52812Q69.24062 141.59062 69.24062 140.30937Q69.24062 139.41875 69.55312 138.66875Q69.88125 137.90312 70.49062 137.49687Q71.1 137.09062 71.92812 137.09062Q73.0375 137.09062 73.75625 137.98125L73.75625 137.23125L74.725 137.23125L74.725 142.60625Q74.725 144.05937 74.42812 144.66875Q74.13125 145.27812 73.49062 145.62187Q72.85 145.98125 71.9125 145.98125Q70.80312 145.98125 70.11562 145.48125Q69.42812 144.98125 69.44375 143.96562ZM70.31875 140.23125Q70.31875 141.45 70.80312 142.0125Q71.2875 142.575 72.02187 142.575Q72.75625 142.575 73.24062 142.0125Q73.74062 141.45 73.74062 140.2625Q73.74062 139.12187 73.225 138.54375Q72.725 137.96562 72.00625 137.96562Q71.30312 137.96562 70.80312 138.54375Q70.31875 139.10625 70.31875 140.23125ZM80.89687 141.45L81.99062 141.575Q81.74062 142.52812 81.0375 143.05937Q80.33437 143.59062 79.25625 143.59062Q77.89687 143.59062 77.08437 142.74687Q76.2875 141.90312 76.2875 140.3875Q76.2875 138.825 77.1 137.96562Q77.9125 137.09062 79.19375 137.09062Q80.44375 137.09062 81.225 137.93437Q82.02187 138.77812 82.02187 140.325Q82.02187 140.41875 82.02187 140.60625L77.38125 140.60625Q77.44375 141.6375 77.95937 142.18437Q78.475 142.71562 79.25625 142.71562Q79.83437 142.71562 80.24062 142.41875Q80.6625 142.10625 80.89687 141.45ZM77.44375 139.74687L80.9125 139.74687Q80.85 138.95 80.52187 138.55937Q80.00625 137.95 79.20937 137.95Q78.475 137.95 77.975 138.43437Q77.49062 138.91875 77.44375 139.74687ZM83.63125 143.45L83.63125 137.23125L84.58437 137.23125L84.58437 138.16875Q84.94375 137.5125 85.24062 137.30937Q85.55312 137.09062 85.92812 137.09062Q86.45937 137.09062 87.00625 137.41875L86.64687 138.40312Q86.25625 138.16875 85.88125 138.16875Q85.52187 138.16875 85.24062 138.3875Q84.975 138.59062 84.86562 138.96562Q84.67812 139.52812 84.67812 140.18437L84.67812 143.45L83.63125 143.45ZM87.64687 136.075L87.64687 134.85625L88.70937 134.85625L88.70937 136.075L87.64687 136.075ZM87.64687 143.45L87.64687 137.23125L88.70937 137.23125L88.70937 143.45L87.64687 143.45ZM94.70937 142.68437Q94.11562 143.18437 93.56875 143.3875Q93.0375 143.59062 92.4125 143.59062Q91.38125 143.59062 90.83437 143.09062Q90.2875 142.59062 90.2875 141.80937Q90.2875 141.35625 90.49062 140.98125Q90.69375 140.59062 91.0375 140.37187Q91.38125 140.1375 91.80312 140.02812Q92.1 139.93437 92.74062 139.85625Q94.00625 139.71562 94.61562 139.49687Q94.61562 139.27812 94.61562 139.23125Q94.61562 138.575 94.31875 138.30937Q93.9125 137.96562 93.11562 137.96562Q92.38125 137.96562 92.02187 138.23125Q91.6625 138.48125 91.49062 139.1375L90.45937 138.99687Q90.6 138.34062 90.92812 137.93437Q91.25625 137.52812 91.86562 137.30937Q92.475 137.09062 93.27187 137.09062Q94.06875 137.09062 94.56875 137.27812Q95.06875 137.46562 95.30312 137.74687Q95.5375 138.02812 95.63125 138.46562Q95.67812 138.73125 95.67812 139.43437L95.67812 140.84062Q95.67812 142.30937 95.74062 142.7Q95.81875 143.09062 96.02187 143.45L94.9125 143.45Q94.75625 143.12187 94.70937 142.68437ZM94.61562 140.325Q94.0375 140.55937 92.89687 140.73125Q92.24062 140.825 91.975 140.95Q91.70937 141.05937 91.55312 141.27812Q91.4125 141.49687 91.4125 141.77812Q91.4125 142.2 91.725 142.48125Q92.05312 142.7625 92.6625 142.7625Q93.27187 142.7625 93.74062 142.49687Q94.225 142.23125 94.44375 141.7625Q94.61562 141.40312 94.61562 140.71562L94.61562 140.325Z" fill-rule="nonzero"/><path fill="#000000" d="M52.396873 165.36465L53.459373 165.2709Q53.5375 165.92715 53.81875 166.3334Q54.1 166.73965 54.678123 167.00528Q55.271873 167.25528 56.00625 167.25528Q56.646873 167.25528 57.146873 167.06778Q57.646873 166.86465 57.88125 166.53653Q58.13125 166.19278 58.13125 165.80215Q58.13125 165.3959 57.896873 165.09903Q57.6625 164.78653 57.13125 164.5834Q56.771873 164.44278 55.584373 164.16153Q54.4125 163.88028 53.94375 163.63028Q53.31875 163.30215 53.021873 162.8334Q52.725 162.34903 52.725 161.75528Q52.725 161.11465 53.084373 160.55215Q53.459373 159.97403 54.1625 159.69278Q54.88125 159.3959 55.740623 159.3959Q56.69375 159.3959 57.428123 159.7084Q58.1625 160.00528 58.553123 160.61465Q58.94375 161.2084 58.975 161.9584L57.88125 162.03653Q57.7875 161.22403 57.271873 160.81778Q56.771873 160.3959 55.7875 160.3959Q54.75625 160.3959 54.2875 160.7709Q53.81875 161.1459 53.81875 161.67715Q53.81875 162.1459 54.146873 162.44278Q54.475 162.73965 55.85 163.05215Q57.240623 163.36465 57.75625 163.59903Q58.50625 163.9584 58.865623 164.48965Q59.225 165.00528 59.225 165.7084Q59.225 166.3959 58.834373 167.00528Q58.44375 167.59903 57.709373 167.94278Q56.975 168.2709 56.053123 168.2709Q54.88125 168.2709 54.084373 167.94278Q53.303123 167.59903 52.85 166.91153Q52.4125 166.22403 52.396873 165.36465ZM61.7875 168.13028L59.88125 161.91153L60.975 161.91153L61.959373 165.50528L62.334373 166.8334Q62.365623 166.73965 62.6625 165.55215L63.646873 161.91153L64.725 161.91153L65.6625 165.5209L65.975 166.7084L66.33437 165.50528L67.39687 161.91153L68.42812 161.91153L66.475 168.13028L65.38125 168.13028L64.39687 164.3959L64.14687 163.34903L62.896873 168.13028L61.7875 168.13028ZM73.89687 166.13028L74.99062 166.25528Q74.74062 167.2084 74.0375 167.73965Q73.33437 168.2709 72.25625 168.2709Q70.89687 168.2709 70.08437 167.42715Q69.2875 166.5834 69.2875 165.06778Q69.2875 163.50528 70.1 162.6459Q70.9125 161.7709 72.19375 161.7709Q73.44375 161.7709 74.225 162.61465Q75.02187 163.4584 75.02187 165.00528Q75.02187 165.09903 75.02187 165.28653L70.38125 165.28653Q70.44375 166.31778 70.95937 166.86465Q71.475 167.3959 72.25625 167.3959Q72.83437 167.3959 73.24062 167.09903Q73.6625 166.78653 73.89687 166.13028ZM70.44375 164.42715L73.9125 164.42715Q73.85 163.63028 73.52187 163.23965Q73.00625 162.63028 72.20937 162.63028Q71.475 162.63028 70.975 163.11465Q70.49062 163.59903 70.44375 164.42715ZM80.67812 168.13028L80.67812 167.34903Q80.08437 168.2709 78.94375 168.2709Q78.19375 168.2709 77.56875 167.86465Q76.94375 167.44278 76.6 166.7084Q76.25625 165.97403 76.25625 165.0209Q76.25625 164.09903 76.56875 163.3334Q76.88125 162.56778 77.50625 162.17715Q78.13125 161.7709 78.89687 161.7709Q79.45937 161.7709 79.89687 162.00528Q80.33437 162.23965 80.61562 162.61465L80.61562 159.53653L81.6625 159.53653L81.6625 168.13028L80.67812 168.13028ZM77.35 165.0209Q77.35 166.22403 77.85 166.81778Q78.35 167.3959 79.0375 167.3959Q79.725 167.3959 80.20937 166.8334Q80.69375 166.2709 80.69375 165.11465Q80.69375 163.8334 80.19375 163.23965Q79.70937 162.6459 78.99062 162.6459Q78.2875 162.6459 77.81875 163.22403Q77.35 163.78653 77.35 165.0209ZM87.89687 166.13028L88.99062 166.25528Q88.74062 167.2084 88.0375 167.73965Q87.33437 168.2709 86.25625 168.2709Q84.89687 168.2709 84.08437 167.42715Q83.2875 166.5834 83.2875 165.06778Q83.2875 163.50528 84.1 162.6459Q84.9125 161.7709 86.19375 161.7709Q87.44375 161.7709 88.225 162.61465Q89.02187 163.4584 89.02187 165.00528Q89.02187 165.09903 89.02187 165.28653L84.38125 165.28653Q84.44375 166.31778 84.95937 166.86465Q85.475 167.3959 86.25625 167.3959Q86.83437 167.3959 87.24062 167.09903Q87.6625 166.78653 87.89687 166.13028ZM84.44375 164.42715L87.9125 164.42715Q87.85 163.63028 87.52187 163.23965Q87.00625 162.63028 86.20937 162.63028Q85.475 162.63028 84.975 163.11465Q84.49062 163.59903 84.44375 164.42715ZM90.64687 168.13028L90.64687 161.91153L91.58437 161.91153L91.58437 162.78653Q92.27187 161.7709 93.56875 161.7709Q94.13125 161.7709 94.6 161.97403Q95.08437 162.17715 95.31875 162.50528Q95.55312 162.8334 95.64687 163.2709Q95.69375 163.56778 95.69375 164.30215L95.69375 168.13028L94.64687 168.13028L94.64687 164.34903Q94.64687 163.69278 94.52187 163.38028Q94.39687 163.06778 94.08437 162.88028Q93.77187 162.67715 93.35 162.67715Q92.67812 162.67715 92.17812 163.11465Q91.69375 163.53653 91.69375 164.72403L91.69375 168.13028L90.64687 168.13028Z" fill-rule="nonzero"/><path fill="#000000" d="M56.834373 192.81055L56.834373 184.2168L62.63125 184.2168L62.63125 185.23242L57.975 185.23242L57.975 187.88867L62.00625 187.88867L62.00625 188.9043L57.975 188.9043L57.975 192.81055L56.834373 192.81055ZM63.646873 185.43555L63.646873 184.2168L64.70937 184.2168L64.70937 185.43555L63.646873 185.43555ZM63.646873 192.81055L63.646873 186.5918L64.70937 186.5918L64.70937 192.81055L63.646873 192.81055ZM66.64687 192.81055L66.64687 186.5918L67.58437 186.5918L67.58437 187.4668Q68.27187 186.45117 69.56875 186.45117Q70.13125 186.45117 70.6 186.6543Q71.08437 186.85742 71.31875 187.18555Q71.55312 187.51367 71.64687 187.95117Q71.69375 188.24805 71.69375 188.98242L71.69375 192.81055L70.64687 192.81055L70.64687 189.0293Q70.64687 188.37305 70.52187 188.06055Q70.39687 187.74805 70.08437 187.56055Q69.77187 187.35742 69.35 187.35742Q68.67812 187.35742 68.17812 187.79492Q67.69375 188.2168 67.69375 189.4043L67.69375 192.81055L66.64687 192.81055ZM73.61562 192.81055L73.61562 184.2168L74.67812 184.2168L74.67812 192.81055L73.61562 192.81055ZM80.70937 192.04492Q80.11562 192.54492 79.56875 192.74805Q79.0375 192.95117 78.4125 192.95117Q77.38125 192.95117 76.83437 192.45117Q76.2875 191.95117 76.2875 191.16992Q76.2875 190.7168 76.49062 190.3418Q76.69375 189.95117 77.0375 189.73242Q77.38125 189.49805 77.80312 189.38867Q78.1 189.29492 78.74062 189.2168Q80.00625 189.07617 80.61562 188.85742Q80.61562 188.63867 80.61562 188.5918Q80.61562 187.93555 80.31875 187.66992Q79.9125 187.32617 79.11562 187.32617Q78.38125 187.32617 78.02187 187.5918Q77.6625 187.8418 77.49062 188.49805L76.45937 188.35742Q76.6 187.70117 76.92812 187.29492Q77.25625 186.88867 77.86562 186.66992Q78.475 186.45117 79.27187 186.45117Q80.06875 186.45117 80.56875 186.63867Q81.06875 186.82617 81.30312 187.10742Q81.5375 187.38867 81.63125 187.82617Q81.67812 188.0918 81.67812 188.79492L81.67812 190.20117Q81.67812 191.66992 81.74062 192.06055Q81.81875 192.45117 82.02187 192.81055L80.9125 192.81055Q80.75625 192.48242 80.70937 192.04492ZM80.61562 189.68555Q80.0375 189.91992 78.89687 190.0918Q78.24062 190.18555 77.975 190.31055Q77.70937 190.41992 77.55312 190.63867Q77.4125 190.85742 77.4125 191.13867Q77.4125 191.56055 77.725 191.8418Q78.05312 192.12305 78.6625 192.12305Q79.27187 192.12305 79.74062 191.85742Q80.225 191.5918 80.44375 191.12305Q80.61562 190.76367 80.61562 190.07617L80.61562 189.68555ZM83.64687 192.81055L83.64687 186.5918L84.58437 186.5918L84.58437 187.4668Q85.27187 186.45117 86.56875 186.45117Q87.13125 186.45117 87.6 186.6543Q88.08437 186.85742 88.31875 187.18555Q88.55312 187.51367 88.64687 187.95117Q88.69375 188.24805 88.69375 188.98242L88.69375 192.81055L87.64687 192.81055L87.64687 189.0293Q87.64687 188.37305 87.52187 188.06055Q87.39687 187.74805 87.08437 187.56055Q86.77187 187.35742 86.35 187.35742Q85.67812 187.35742 85.17812 187.79492Q84.69375 188.2168 84.69375 189.4043L84.69375 192.81055L83.64687 192.81055ZM94.67812 192.81055L94.67812 192.0293Q94.08437 192.95117 92.94375 192.95117Q92.19375 192.95117 91.56875 192.54492Q90.94375 192.12305 90.6 191.38867Q90.25625 190.6543 90.25625 189.70117Q90.25625 188.7793 90.56875 188.01367Q90.88125 187.24805 91.50625 186.85742Q92.13125 186.45117 92.89687 186.45117Q93.45937 186.45117 93.89687 186.68555Q94.33437 186.91992 94.61562 187.29492L94.61562 184.2168L95.6625 184.2168L95.6625 192.81055L94.67812 192.81055ZM91.35 189.70117Q91.35 190.9043 91.85 191.49805Q92.35 192.07617 93.0375 192.07617Q93.725 192.07617 94.20937 191.51367Q94.69375 190.95117 94.69375 189.79492Q94.69375 188.51367 94.19375 187.91992Q93.70937 187.32617 92.99062 187.32617Q92.2875 187.32617 91.81875 187.9043Q91.35 188.4668 91.35 189.70117Z" fill-rule="nonzero"/><path fill="#000000" d="M47.7875 217.49081L47.7875 208.89706L51.6 208.89706Q52.75625 208.89706 53.35 209.13144Q53.94375 209.36581 54.303123 209.95956Q54.6625 210.53769 54.6625 211.24081Q54.6625 212.16269 54.06875 212.78769Q53.475 213.41269 52.240623 213.58456Q52.69375 213.80331 52.928123 214.00644Q53.428123 214.45956 53.865623 215.14706L55.365623 217.49081L53.928123 217.49081L52.803123 215.70956Q52.303123 214.92831 51.975 214.52206Q51.6625 214.11581 51.396873 213.95956Q51.146873 213.78769 50.88125 213.70956Q50.69375 213.67831 50.25625 213.67831L48.928123 213.67831L48.928123 217.49081L47.7875 217.49081ZM48.928123 212.69394L51.38125 212.69394Q52.146873 212.69394 52.584373 212.53769Q53.0375 212.36581 53.25625 212.02206Q53.490623 211.66269 53.490623 211.24081Q53.490623 210.63144 53.0375 210.24081Q52.6 209.85019 51.646873 209.85019L48.928123 209.85019L48.928123 212.69394ZM56.25625 214.38144Q56.25625 212.64706 57.209373 211.81894Q58.00625 211.13144 59.1625 211.13144Q60.44375 211.13144 61.25625 211.97519Q62.084373 212.80331 62.084373 214.28769Q62.084373 215.49081 61.725 216.17831Q61.365623 216.86581 60.6625 217.25644Q59.975 217.63144 59.1625 217.63144Q57.865623 217.63144 57.053123 216.80331Q56.25625 215.95956 56.25625 214.38144ZM57.334373 214.38144Q57.334373 215.56894 57.85 216.16269Q58.38125 216.75644 59.1625 216.75644Q59.959373 216.75644 60.475 216.16269Q60.990623 215.56894 60.990623 214.35019Q60.990623 213.19394 60.459373 212.60019Q59.94375 212.00644 59.1625 212.00644Q58.38125 212.00644 57.85 212.60019Q57.334373 213.17831 57.334373 214.38144ZM63.646873 217.49081L63.646873 211.27206L64.58437 211.27206L64.58437 212.14706Q64.88125 211.67831 65.36562 211.41269Q65.85 211.13144 66.475 211.13144Q67.1625 211.13144 67.6 211.41269Q68.05312 211.69394 68.225 212.20956Q68.975 211.13144 70.14687 211.13144Q71.08437 211.13144 71.56875 211.64706Q72.06875 212.14706 72.06875 213.22519L72.06875 217.49081L71.02187 217.49081L71.02187 213.56894Q71.02187 212.94394 70.9125 212.66269Q70.81875 212.38144 70.55312 212.20956Q70.2875 212.03769 69.9125 212.03769Q69.25625 212.03769 68.81875 212.47519Q68.39687 212.91269 68.39687 213.88144L68.39687 217.49081L67.33437 217.49081L67.33437 213.44394Q67.33437 212.74081 67.06875 212.39706Q66.81875 212.03769 66.24062 212.03769Q65.7875 212.03769 65.4125 212.27206Q65.0375 212.50644 64.86562 212.95956Q64.69375 213.41269 64.69375 214.25644L64.69375 217.49081L63.646873 217.49081ZM77.70937 216.72519Q77.11562 217.22519 76.56875 217.42831Q76.0375 217.63144 75.4125 217.63144Q74.38125 217.63144 73.83437 217.13144Q73.2875 216.63144 73.2875 215.85019Q73.2875 215.39706 73.49062 215.02206Q73.69375 214.63144 74.0375 214.41269Q74.38125 214.17831 74.80312 214.06894Q75.1 213.97519 75.74062 213.89706Q77.00625 213.75644 77.61562 213.53769Q77.61562 213.31894 77.61562 213.27206Q77.61562 212.61581 77.31875 212.35019Q76.9125 212.00644 76.11562 212.00644Q75.38125 212.00644 75.02187 212.27206Q74.6625 212.52206 74.49062 213.17831L73.45937 213.03769Q73.6 212.38144 73.92812 211.97519Q74.25625 211.56894 74.86562 211.35019Q75.475 211.13144 76.27187 211.13144Q77.06875 211.13144 77.56875 211.31894Q78.06875 211.50644 78.30312 211.78769Q78.5375 212.06894 78.63125 212.50644Q78.67812 212.77206 78.67812 213.47519L78.67812 214.88144Q78.67812 216.35019 78.74062 216.74081Q78.81875 217.13144 79.02187 217.49081L77.9125 217.49081Q77.75625 217.16269 77.70937 216.72519ZM77.61562 214.36581Q77.0375 214.60019 75.89687 214.77206Q75.24062 214.86581 74.975 214.99081Q74.70937 215.10019 74.55312 215.31894Q74.4125 215.53769 74.4125 215.81894Q74.4125 216.24081 74.725 216.52206Q75.05312 216.80331 75.6625 216.80331Q76.27187 216.80331 76.74062 216.53769Q77.225 216.27206 77.44375 215.80331Q77.61562 215.44394 77.61562 214.75644L77.61562 214.36581ZM80.64687 217.49081L80.64687 211.27206L81.58437 211.27206L81.58437 212.14706Q82.27187 211.13144 83.56875 211.13144Q84.13125 211.13144 84.6 211.33456Q85.08437 211.53769 85.31875 211.86581Q85.55312 212.19394 85.64687 212.63144Q85.69375 212.92831 85.69375 213.66269L85.69375 217.49081L84.64687 217.49081L84.64687 213.70956Q84.64687 213.05331 84.52187 212.74081Q84.39687 212.42831 84.08437 212.24081Q83.77187 212.03769 83.35 212.03769Q82.67812 212.03769 82.17812 212.47519Q81.69375 212.89706 81.69375 214.08456L81.69375 217.49081L80.64687 217.49081ZM87.64687 210.11581L87.64687 208.89706L88.70937 208.89706L88.70937 210.11581L87.64687 210.11581ZM87.64687 217.49081L87.64687 211.27206L88.70937 211.27206L88.70937 217.49081L87.64687 217.49081ZM94.70937 216.72519Q94.11562 217.22519 93.56875 217.42831Q93.0375 217.63144 92.4125 217.63144Q91.38125 217.63144 90.83437 217.13144Q90.2875 216.63144 90.2875 215.85019Q90.2875 215.39706 90.49062 215.02206Q90.69375 214.63144 91.0375 214.41269Q91.38125 214.17831 91.80312 214.06894Q92.1 213.97519 92.74062 213.89706Q94.00625 213.75644 94.61562 213.53769Q94.61562 213.31894 94.61562 213.27206Q94.61562 212.61581 94.31875 212.35019Q93.9125 212.00644 93.11562 212.00644Q92.38125 212.00644 92.02187 212.27206Q91.6625 212.52206 91.49062 213.17831L90.45937 213.03769Q90.6 212.38144 90.92812 211.97519Q91.25625 211.56894 91.86562 211.35019Q92.475 211.13144 93.27187 211.13144Q94.06875 211.13144 94.56875 211.31894Q95.06875 211.50644 95.30312 211.78769Q95.5375 212.06894 95.63125 212.50644Q95.67812 212.77206 95.67812 213.47519L95.67812 214.88144Q95.67812 216.35019 95.74062 216.74081Q95.81875 217.13144 96.02187 217.49081L94.9125 217.49081Q94.75625 217.16269 94.70937 216.72519ZM94.61562 214.36581Q94.0375 214.60019 92.89687 214.77206Q92.24062 214.86581 91.975 214.99081Q91.70937 215.10019 91.55312 215.31894Q91.4125 215.53769 91.4125 215.81894Q91.4125 216.24081 91.725 216.52206Q92.05312 216.80331 92.6625 216.80331Q93.27187 216.80331 93.74062 216.53769Q94.225 216.27206 94.44375 215.80331Q94.61562 215.44394 94.61562 214.75644L94.61562 214.36581Z" fill-rule="nonzero"/><path fill="#000000" d="M99.85 242.91562Q99.85 241.38437 100.1625 240.4625Q100.475 239.525 101.08437 239.025Q101.70937 238.525 102.64687 238.525Q103.33437 238.525 103.85 238.80624Q104.38125 239.0875 104.725 239.61874Q105.06875 240.13437 105.25625 240.88437Q105.44375 241.63437 105.44375 242.91562Q105.44375 244.43124 105.13125 245.35312Q104.83437 246.275 104.20937 246.79062Q103.6 247.29062 102.64687 247.29062Q101.4125 247.29062 100.69375 246.4Q99.85 245.3375 99.85 242.91562ZM100.92812 242.91562Q100.92812 245.025 101.42812 245.72812Q101.92812 246.43124 102.64687 246.43124Q103.38125 246.43124 103.86562 245.72812Q104.36562 245.025 104.36562 242.91562Q104.36562 240.79062 103.86562 240.10312Q103.38125 239.4 102.63125 239.4Q101.9125 239.4 101.475 240.00937Q100.92812 240.79062 100.92812 242.91562Z" fill-rule="nonzero"/><path fill="#000000" d="M221.08542 247.15L220.03854 247.15L220.03854 240.43124Q219.64792 240.79062 219.02292 241.16562Q218.41354 241.525 217.92917 241.69687L217.92917 240.68124Q218.80417 240.25937 219.46042 239.68124Q220.1323 239.0875 220.41354 238.525L221.08542 238.525L221.08542 247.15ZM224.11667 242.91562Q224.11667 241.38437 224.42917 240.4625Q224.74167 239.525 225.35104 239.025Q225.97604 238.525 226.91354 238.525Q227.60104 238.525 228.11667 238.80624Q228.64792 239.0875 228.99167 239.61874Q229.33542 240.13437 229.52292 240.88437Q229.71042 241.63437 229.71042 242.91562Q229.71042 244.43124 229.39792 245.35312Q229.10104 246.275 228.47604 246.79062Q227.86667 247.29062 226.91354 247.29062Q225.67917 247.29062 224.96042 246.4Q224.11667 245.3375 224.11667 242.91562ZM225.1948 242.91562Q225.1948 245.025 225.6948 245.72812Q226.1948 246.43124 226.91354 246.43124Q227.64792 246.43124 228.1323 245.72812Q228.6323 245.025 228.6323 242.91562Q228.6323 240.79062 228.1323 240.10312Q227.64792 239.4 226.89792 239.4Q226.17917 239.4 225.74167 240.00937Q225.1948 240.79062 225.1948 242.91562Z" fill-rule="nonzero"/><path fill="#000000" d="M343.4302 246.13437L343.4302 247.15L337.7427 247.15Q337.7427 246.775 337.8677 246.41562Q338.08646 245.8375 338.5552 245.275Q339.03958 244.7125 339.94583 243.97812Q341.35208 242.82187 341.83646 242.15Q342.33646 241.47812 342.33646 240.88437Q342.33646 240.25937 341.88333 239.8375Q341.4302 239.4 340.71146 239.4Q339.94583 239.4 339.4927 239.85312Q339.03958 240.30624 339.02396 241.11874L337.94583 241.00937Q338.0552 239.79062 338.77396 239.16562Q339.50833 238.525 340.7427 238.525Q341.97708 238.525 342.69583 239.2125Q343.41458 239.9 343.41458 240.91562Q343.41458 241.43124 343.19583 241.93124Q342.9927 242.41562 342.4927 242.97812Q342.00833 243.525 340.88333 244.47812Q339.9302 245.275 339.64896 245.57187Q339.38333 245.85312 339.21146 246.13437L343.4302 246.13437ZM344.88333 242.91562Q344.88333 241.38437 345.19583 240.4625Q345.50833 239.525 346.1177 239.025Q346.7427 238.525 347.6802 238.525Q348.3677 238.525 348.88333 238.80624Q349.41458 239.0875 349.75833 239.61874Q350.10208 240.13437 350.28958 240.88437Q350.47708 241.63437 350.47708 242.91562Q350.47708 244.43124 350.16458 245.35312Q349.8677 246.275 349.2427 246.79062Q348.63333 247.29062 347.6802 247.29062Q346.44583 247.29062 345.72708 246.4Q344.88333 245.3375 344.88333 242.91562ZM345.96146 242.91562Q345.96146 245.025 346.46146 245.72812Q346.96146 246.43124 347.6802 246.43124Q348.41458 246.43124 348.89896 245.72812Q349.39896 245.025 349.39896 242.91562Q349.39896 240.79062 348.89896 240.10312Q348.41458 239.4 347.66458 239.4Q346.94583 239.4 346.50833 240.00937Q345.96146 240.79062 345.96146 242.91562Z" fill-rule="nonzero"/><path fill="#000000" d="M458.65 244.88437L459.7125 244.74374Q459.88437 245.63437 460.32187 246.04062Q460.75937 246.43124 461.38437 246.43124Q462.13437 246.43124 462.65 245.91562Q463.16562 245.4 463.16562 244.63437Q463.16562 243.91562 462.68124 243.44687Q462.2125 242.9625 461.47812 242.9625Q461.18124 242.9625 460.72812 243.0875L460.85312 242.15Q460.9625 242.16562 461.025 242.16562Q461.69687 242.16562 462.22812 241.82187Q462.775 241.4625 462.775 240.72812Q462.775 240.15 462.38437 239.775Q461.99374 239.38437 461.36874 239.38437Q460.75937 239.38437 460.3375 239.775Q459.93124 240.16562 459.82187 240.93124L458.75937 240.74374Q458.94687 239.69687 459.63437 239.11874Q460.32187 238.525 461.3375 238.525Q462.04062 238.525 462.63437 238.8375Q463.22812 239.13437 463.54062 239.65Q463.85312 240.16562 463.85312 240.75937Q463.85312 241.30624 463.55624 241.775Q463.25937 242.22812 462.68124 242.49374Q463.43124 242.66562 463.85312 243.22812Q464.275 243.775 464.275 244.61874Q464.275 245.74374 463.44687 246.525Q462.63437 247.30624 461.38437 247.30624Q460.25937 247.30624 459.50937 246.63437Q458.75937 245.94687 458.65 244.88437ZM465.65 242.91562Q465.65 241.38437 465.9625 240.4625Q466.275 239.525 466.88437 239.025Q467.50937 238.525 468.44687 238.525Q469.13437 238.525 469.65 238.80624Q470.18124 239.0875 470.525 239.61874Q470.86874 240.13437 471.05624 240.88437Q471.24374 241.63437 471.24374 242.91562Q471.24374 244.43124 470.93124 245.35312Q470.63437 246.275 470.00937 246.79062Q469.4 247.29062 468.44687 247.29062Q467.2125 247.29062 466.49374 246.4Q465.65 245.3375 465.65 242.91562ZM466.72812 242.91562Q466.72812 245.025 467.22812 245.72812Q467.72812 246.43124 468.44687 246.43124Q469.18124 246.43124 469.66562 245.72812Q470.16562 245.025 470.16562 242.91562Q470.16562 240.79062 469.66562 240.10312Q469.18124 239.4 468.43124 239.4Q467.7125 239.4 467.275 240.00937Q466.72812 240.79062 466.72812 242.91562Z" fill-rule="nonzero"/><path fill="#757575" d="M14.81875 33.85L20.31875 19.537498L22.365625 19.537498L28.225 33.85L26.06875 33.85L24.396875 29.506248L18.4125 29.506248L16.834375 33.85L14.81875 33.85ZM18.959375 27.974998L23.803125 27.974998L22.31875 24.006248Q21.63125 22.193748 21.303125 21.037498Q21.021875 22.412498 20.521875 23.771873L18.959375 27.974998ZM29.1625 37.81875L29.1625 23.474998L30.771875 23.474998L30.771875 24.818748Q31.334375 24.037498 32.0375 23.646873Q32.75625 23.240623 33.771873 23.240623Q35.1 23.240623 36.115623 23.928123Q37.13125 24.615623 37.646873 25.865623Q38.178123 27.099998 38.178123 28.584373Q38.178123 30.178123 37.6 31.459373Q37.0375 32.725 35.94375 33.4125Q34.85 34.084373 33.646873 34.084373Q32.771873 34.084373 32.06875 33.709373Q31.38125 33.334373 30.928125 32.771873L30.928125 37.81875L29.1625 37.81875ZM30.75625 28.724998Q30.75625 30.724998 31.56875 31.678123Q32.38125 32.63125 33.5375 32.63125Q34.709373 32.63125 35.5375 31.646873Q36.38125 30.662498 36.38125 28.568748Q36.38125 26.599998 35.553123 25.615623Q34.740623 24.615623 33.615623 24.615623Q32.490623 24.615623 31.615625 25.678123Q30.75625 26.724998 30.75625 28.724998ZM40.1625 37.81875L40.1625 23.474998L41.771873 23.474998L41.771873 24.818748Q42.334373 24.037498 43.0375 23.646873Q43.75625 23.240623 44.771873 23.240623Q46.1 23.240623 47.115623 23.928123Q48.13125 24.615623 48.646873 25.865623Q49.178123 27.099998 49.178123 28.584373Q49.178123 30.178123 48.6 31.459373Q48.0375 32.725 46.94375 33.4125Q45.85 34.084373 44.646873 34.084373Q43.771873 34.084373 43.06875 33.709373Q42.38125 33.334373 41.928123 32.771873L41.928123 37.81875L40.1625 37.81875ZM41.75625 28.724998Q41.75625 30.724998 42.56875 31.678123Q43.38125 32.63125 44.5375 32.63125Q45.709373 32.63125 46.5375 31.646873Q47.38125 30.662498 47.38125 28.568748Q47.38125 26.599998 46.553123 25.615623Q45.740623 24.615623 44.615623 24.615623Q43.490623 24.615623 42.615623 25.678123Q41.75625 26.724998 41.75625 28.724998ZM51.13125 33.85L51.13125 19.537498L52.88125 19.537498L52.88125 33.85L51.13125 33.85ZM55.178123 21.553123L55.178123 19.537498L56.94375 19.537498L56.94375 21.553123L55.178123 21.553123ZM55.178123 33.85L55.178123 23.474998L56.94375 23.474998L56.94375 33.85L55.178123 33.85ZM65.94375 30.053123L67.6625 30.271873Q67.38125 32.06875 66.20937 33.084373Q65.05312 34.084373 63.35 34.084373Q61.225 34.084373 59.928123 32.69375Q58.63125 31.303123 58.63125 28.709373Q58.63125 27.021873 59.178123 25.771873Q59.740623 24.506248 60.88125 23.881248Q62.021873 23.240623 63.365623 23.240623Q65.05312 23.240623 66.11562 24.099998Q67.19375 24.959373 67.50625 26.521873L65.7875 26.787498Q65.55312 25.740623 64.92812 25.224998Q64.30312 24.693748 63.428123 24.693748Q62.1 24.693748 61.271873 25.646873Q60.44375 26.599998 60.44375 28.646873Q60.44375 30.740623 61.240623 31.693748Q62.0375 32.63125 63.334373 32.63125Q64.36562 32.63125 65.05312 32.00625Q65.75625 31.365623 65.94375 30.053123ZM75.94375 32.56875Q74.95937 33.396873 74.05312 33.740623Q73.14687 34.084373 72.11562 34.084373Q70.4125 34.084373 69.49062 33.25625Q68.56875 32.4125 68.56875 31.115623Q68.56875 30.349998 68.9125 29.724998Q69.27187 29.099998 69.83437 28.724998Q70.39687 28.334373 71.1 28.131248Q71.61562 28.006248 72.6625 27.865623Q74.7875 27.615623 75.7875 27.271873Q75.80312 26.912498 75.80312 26.803123Q75.80312 25.740623 75.30312 25.287498Q74.63125 24.693748 73.30312 24.693748Q72.05312 24.693748 71.45937 25.131248Q70.88125 25.568748 70.6 26.678123L68.88125 26.443748Q69.11562 25.334373 69.64687 24.662498Q70.17812 23.974998 71.19375 23.615623Q72.20937 23.240623 73.55312 23.240623Q74.88125 23.240623 75.70937 23.553123Q76.5375 23.865623 76.92812 24.349998Q77.31875 24.818748 77.475 25.537498Q77.56875 25.990623 77.56875 27.162498L77.56875 29.506248Q77.56875 31.959373 77.67812 32.615623Q77.7875 33.25625 78.13125 33.85L76.2875 33.85Q76.02187 33.303123 75.94375 32.56875ZM75.7875 28.646873Q74.83437 29.037498 72.9125 29.303123Q71.83437 29.459373 71.38125 29.662498Q70.94375 29.849998 70.69375 30.224998Q70.44375 30.599998 70.44375 31.068748Q70.44375 31.771873 70.975 32.240623Q71.50625 32.709373 72.5375 32.709373Q73.55312 32.709373 74.33437 32.271873Q75.13125 31.818748 75.50625 31.053123Q75.7875 30.443748 75.7875 29.287498L75.7875 28.646873ZM80.1625 33.85L80.1625 23.474998L81.75625 23.474998L81.75625 24.959373Q82.89687 23.240623 85.05312 23.240623Q85.99062 23.240623 86.77187 23.584373Q87.56875 23.912498 87.95937 24.459373Q88.35 25.006248 88.50625 25.756248Q88.6 26.256248 88.6 27.474998L88.6 33.85L86.83437 33.85L86.83437 27.537498Q86.83437 26.459373 86.63125 25.928123Q86.42812 25.396873 85.89687 25.084373Q85.38125 24.771873 84.67812 24.771873Q83.55312 24.771873 82.74062 25.490623Q81.92812 26.193748 81.92812 28.178123L81.92812 33.85L80.1625 33.85ZM95.00625 32.271873L95.25625 33.834373Q94.52187 33.990623 93.92812 33.990623Q92.975 33.990623 92.44375 33.69375Q91.92812 33.38125 91.70937 32.896873Q91.49062 32.396873 91.49062 30.818748L91.49062 24.849998L90.20937 24.849998L90.20937 23.474998L91.49062 23.474998L91.49062 20.912498L93.24062 19.849998L93.24062 23.474998L95.00625 23.474998L95.00625 24.849998L93.24062 24.849998L93.24062 30.912498Q93.24062 31.662498 93.33437 31.881248Q93.42812 32.084373 93.63125 32.225Q93.85 32.35 94.24062 32.35Q94.52187 32.35 95.00625 32.271873ZM96.45937 30.756248L98.20937 30.474998Q98.35 31.521873 99.02187 32.084373Q99.69375 32.63125 100.89687 32.63125Q102.1 32.63125 102.67812 32.146873Q103.27187 31.646873 103.27187 30.990623Q103.27187 30.396873 102.75625 30.053123Q102.39687 29.818748 100.95937 29.459373Q99.02187 28.959373 98.27187 28.615623Q97.5375 28.256248 97.14687 27.631248Q96.75625 26.990623 96.75625 26.224998Q96.75625 25.537498 97.06875 24.943748Q97.39687 24.349998 97.94375 23.959373Q98.35 23.662498 99.05312 23.459373Q99.77187 23.240623 100.58437 23.240623Q101.80312 23.240623 102.725 23.599998Q103.64687 23.943748 104.08437 24.553123Q104.52187 25.146873 104.69375 26.146873L102.975 26.381248Q102.85 25.584373 102.2875 25.146873Q101.725 24.693748 100.70937 24.693748Q99.49062 24.693748 98.975 25.099998Q98.45937 25.490623 98.45937 26.021873Q98.45937 26.365623 98.67812 26.646873Q98.88125 26.928123 99.35 27.115623Q99.61562 27.209373 100.89687 27.553123Q102.77187 28.053123 103.50625 28.381248Q104.24062 28.693748 104.6625 29.303123Q105.08437 29.896873 105.08437 30.803123Q105.08437 31.678123 104.56875 32.459373Q104.05312 33.240623 103.08437 33.6625Q102.11562 34.084373 100.89687 34.084373Q98.88125 34.084373 97.81875 33.240623Q96.75625 32.396873 96.45937 30.756248ZM116.05312 33.85L112.1 23.474998L113.95937 23.474998L116.19375 29.693748Q116.55312 30.693748 116.85 31.771873Q117.08437 30.959373 117.50625 29.803123L119.80312 23.474998L121.61562 23.474998L117.69375 33.85L116.05312 33.85ZM122.45937 30.756248L124.20937 30.474998Q124.35 31.521873 125.02187 32.084373Q125.69375 32.63125 126.89687 32.63125Q128.1 32.63125 128.67813 32.146873Q129.27188 31.646873 129.27188 30.990623Q129.27188 30.396873 128.75626 30.053123Q128.39688 29.818748 126.95937 29.459373Q125.02187 28.959373 124.27187 28.615623Q123.5375 28.256248 123.14687 27.631248Q122.75625 26.990623 122.75625 26.224998Q122.75625 25.537498 123.06875 24.943748Q123.39687 24.349998 123.94375 23.959373Q124.35 23.662498 125.05312 23.459373Q125.77187 23.240623 126.58437 23.240623Q127.80312 23.240623 128.725 23.599998Q129.64688 23.943748 130.08438 24.553123Q130.52188 25.146873 130.69376 26.146873L128.975 26.381248Q128.85 25.584373 128.2875 25.146873Q127.725 24.693748 126.70937 24.693748Q125.49062 24.693748 124.975 25.099998Q124.45937 25.490623 124.45937 26.021873Q124.45937 26.365623 124.67812 26.646873Q124.88125 26.928123 125.35 27.115623Q125.61562 27.209373 126.89687 27.553123Q128.77188 28.053123 129.50626 28.381248Q130.24063 28.693748 130.6625 29.303123Q131.08438 29.896873 131.08438 30.803123Q131.08438 31.678123 130.56876 32.459373Q130.05313 33.240623 129.08438 33.6625Q128.11563 34.084373 126.89687 34.084373Q124.88125 34.084373 123.81875 33.240623Q122.75625 32.396873 122.45937 30.756248ZM133.6625 33.85L133.6625 31.849998L135.6625 31.849998L135.6625 33.85L133.6625 33.85ZM155.61563 28.834373L157.50626 29.303123Q156.9125 31.646873 155.36563 32.88125Q153.81876 34.1 151.56876 34.1Q149.25626 34.1 147.80313 33.1625Q146.36563 32.209373 145.6 30.428123Q144.85 28.631248 144.85 26.584373Q144.85 24.349998 145.69376 22.693748Q146.55313 21.021873 148.13126 20.162498Q149.70938 19.287498 151.6 19.287498Q153.75626 19.287498 155.20938 20.381248Q156.67813 21.474998 157.25626 23.459373L155.39688 23.896873Q154.89688 22.334373 153.94376 21.631248Q153.00626 20.912498 151.56876 20.912498Q149.9125 20.912498 148.80313 21.709373Q147.69376 22.490623 147.24063 23.834373Q146.80313 25.162498 146.80313 26.568748Q146.80313 28.396873 147.33438 29.771873Q147.86563 31.131248 148.99063 31.803123Q150.11563 32.475 151.4125 32.475Q153.00626 32.475 154.11563 31.553123Q155.225 30.631248 155.61563 28.834373ZM158.52188 28.662498Q158.52188 25.787498 160.11563 24.396873Q161.45938 23.240623 163.38126 23.240623Q165.52188 23.240623 166.86563 24.646873Q168.225 26.053123 168.225 28.521873Q168.225 30.521873 167.63126 31.678123Q167.0375 32.81875 165.88126 33.459373Q164.74063 34.084373 163.38126 34.084373Q161.19376 34.084373 159.85 32.69375Q158.52188 31.287498 158.52188 28.662498ZM160.31876 28.662498Q160.31876 30.662498 161.17813 31.646873Q162.05313 32.63125 163.38126 32.63125Q164.69376 32.63125 165.55313 31.646873Q166.42813 30.646873 166.42813 28.599998Q166.42813 26.678123 165.55313 25.693748Q164.67813 24.693748 163.38126 24.693748Q162.05313 24.693748 161.17813 25.693748Q160.31876 26.678123 160.31876 28.662498ZM176.95938 33.85L176.95938 32.31875Q175.75626 34.084373 173.67813 34.084373Q172.75626 34.084373 171.95938 33.740623Q171.1625 33.38125 170.77188 32.85Q170.39688 32.31875 170.24063 31.537498Q170.13126 31.021873 170.13126 29.896873L170.13126 23.474998L171.88126 23.474998L171.88126 29.224998Q171.88126 30.599998 171.99063 31.084373Q172.1625 31.771873 172.69376 32.178123Q173.24063 32.56875 174.02188 32.56875Q174.81876 32.56875 175.50626 32.1625Q176.20938 31.756248 176.49063 31.068748Q176.7875 30.365623 176.7875 29.037498L176.7875 23.474998L178.5375 23.474998L178.5375 33.85L176.95938 33.85ZM181.1625 33.85L181.1625 23.474998L182.75626 23.474998L182.75626 24.959373Q183.89688 23.240623 186.05313 23.240623Q186.99063 23.240623 187.77188 23.584373Q188.56876 23.912498 188.95938 24.459373Q189.35 25.006248 189.50626 25.756248Q189.6 26.256248 189.6 27.474998L189.6 33.85L187.83438 33.85L187.83438 27.537498Q187.83438 26.459373 187.63126 25.928123Q187.42813 25.396873 186.89688 25.084373Q186.38126 24.771873 185.67813 24.771873Q184.55313 24.771873 183.74063 25.490623Q182.92813 26.193748 182.92813 28.178123L182.92813 33.85L181.1625 33.85ZM196.00626 32.271873L196.25626 33.834373Q195.52188 33.990623 194.92813 33.990623Q193.975 33.990623 193.44376 33.69375Q192.92813 33.38125 192.70938 32.896873Q192.49063 32.396873 192.49063 30.818748L192.49063 24.849998L191.20938 24.849998L191.20938 23.474998L192.49063 23.474998L192.49063 20.912498L194.24063 19.849998L194.24063 23.474998L196.00626 23.474998L196.00626 24.849998L194.24063 24.849998L194.24063 30.912498Q194.24063 31.662498 194.33438 31.881248Q194.42813 32.084373 194.63126 32.225Q194.85 32.35 195.24063 32.35Q195.52188 32.35 196.00626 32.271873ZM198.14688 33.85L198.14688 23.474998L199.725 23.474998L199.725 25.053123Q200.33438 23.943748 200.85 23.599998Q201.36563 23.240623 201.975 23.240623Q202.86563 23.240623 203.7875 23.803123L203.17813 25.443748Q202.5375 25.053123 201.89688 25.053123Q201.31876 25.053123 200.85 25.412498Q200.39688 25.756248 200.19376 26.365623Q199.9125 27.303123 199.9125 28.412498L199.9125 33.85L198.14688 33.85ZM205.08438 37.85L204.89688 36.19375Q205.475 36.35 205.89688 36.35Q206.49063 36.35 206.83438 36.146873Q207.19376 35.959373 207.4125 35.615623Q207.58438 35.35 207.95938 34.303123Q208.00626 34.146873 208.11563 33.865623L204.17813 23.474998L206.06876 23.474998L208.225 29.490623Q208.64688 30.631248 208.975 31.881248Q209.2875 30.678123 209.69376 29.521873L211.9125 23.474998L213.67813 23.474998L209.725 34.021873Q209.1 35.740623 208.74063 36.38125Q208.27188 37.25625 207.6625 37.646873Q207.06876 38.053123 206.225 38.053123Q205.70938 38.053123 205.08438 37.85Z" fill-rule="nonzero"/></svg>